<svg width="463" height="596" viewBox="0 0 463 596" fill="none" xmlns="http://www.w3.org/2000/svg">
<path class="ballonFire" d="M205.06 420.414C204.73 424.074 203.87 433.414 209.96 440.224C218.93 450.264 238.35 449.624 246.45 441.184C259.73 427.334 220.24 402.784 229.98 388.734C236.46 379.384 206.52 404.474 205.06 420.414Z" fill="#FFD05A"/>
<path class="ballonFire" d="M207.6 422.174C207.36 424.844 206.73 431.654 211.17 436.614C217.71 443.934 231.87 443.474 237.78 437.314C247.46 427.214 218.67 409.314 225.77 399.074C230.49 392.254 208.66 410.554 207.6 422.174Z" fill="#FFAD36"/>
<path class="ballonFire" d="M211.93 421.504C211.8 422.944 211.46 426.624 213.86 429.314C217.4 433.274 225.05 433.024 228.24 429.694C233.48 424.234 217.91 414.564 221.75 409.024C224.31 405.334 212.5 415.224 211.93 421.504Z" fill="#ED682E"/>
<path d="M253 467.504H202.81C201.2 467.504 199.9 466.204 199.9 464.594V447.404C199.9 445.794 201.2 444.494 202.81 444.494H253C254.61 444.494 255.91 445.794 255.91 447.404V464.594C255.91 466.204 254.61 467.504 253 467.504Z" fill="#4F3547" stroke="#4F3547" stroke-miterlimit="10"/>
<path d="M159.74 397.084L194.91 519.504" stroke="#4F3547" stroke-miterlimit="10"/>
<path d="M295.91 407.504L267.91 522.504" stroke="#4F3547" stroke-miterlimit="10"/>
<path d="M126.58 383.004L185.91 519.504" stroke="#4F3547" stroke-miterlimit="10"/>
<path d="M333.91 384.504L270.91 520.504" stroke="#4F3547" stroke-miterlimit="10"/>
<path d="M265.41 587.004H188.41C179.02 587.004 171.41 579.394 171.41 570.004V535.004C171.41 525.614 179.02 518.004 188.41 518.004H265.41C274.8 518.004 282.41 525.614 282.41 535.004V570.004C282.41 579.394 274.8 587.004 265.41 587.004Z" fill="#4F3547"/>
<path d="M192.15 507.564C190.24 510.264 187.66 507.684 183.23 506.154C178.8 504.614 174.14 505.964 175.96 501.174C177.77 496.424 180.13 500.724 184.56 502.254C189 503.794 194.35 502.664 192.15 507.564Z" fill="#4C2F63"/>
<path d="M172.25 496.964C174.56 497.024 176.4 498.514 176.35 500.294C176.31 502.074 174.4 503.474 172.09 503.414C169.78 503.354 167.94 501.864 167.99 500.084C168.04 498.304 169.94 496.904 172.25 496.964Z" fill="#A58466"/>
<path d="M192.18 491.974C192.38 489.294 192.69 486.474 195.36 486.664C198.03 486.854 198.51 489.294 198.32 491.974C198.12 494.654 200.93 496.344 195.37 496.344C189.81 496.344 191.98 494.644 192.18 491.974Z" fill="#B5916F"/>
<path d="M200.47 496.064C202.29 499.164 199.03 499.824 196.08 502.594C190.85 508.374 192.76 509.954 188.98 505.744C185.23 501.564 188.67 506.294 192.95 499.294C195.9 496.514 196.71 491.474 200.47 496.064Z" fill="#3F2B4F"/>
<path d="M185.69 472.604C187.17 467.384 191.22 465.884 195.5 465.884C202.27 465.884 207.03 470.654 207.03 478.984C205.45 486.044 204.59 485.654 198.27 489.994C194.34 492.694 190.76 491.184 185.69 489.994C184.04 489.604 184.49 483.664 182.46 482.884C185.23 478.524 184.83 475.634 185.69 472.604Z" fill="#B5916F"/>
<path d="M212.19 468.754C209.62 470.394 205.85 469.084 203.76 465.824C201.67 462.564 202.07 458.614 204.64 456.974C207.21 455.334 210.98 456.644 213.07 459.904C215.16 463.164 214.76 467.124 212.19 468.754Z" fill="#272429"/>
<path d="M188.09 479.504C188.1 480.354 188.07 481.194 188 481.814C187.97 482.124 187.93 482.354 187.88 482.504H187.87H187.86H187.85H187.84H187.83H187.82H187.81H187.8H187.79H187.78H187.77H187.76H187.75H187.74H187.73H187.72H187.71H187.7H187.69H187.68H187.67H187.66H187.65H187.64H187.63H187.62H187.61H187.6H187.59H187.58H187.57H187.56H187.55H187.54H187.53H187.52H187.51H187.5H187.49H187.48H187.47H187.46H187.45H187.44H187.43H187.42H187.41H187.4H187.39H187.38H187.37H187.41H187.4H187.39H187.38H187.37H187.36H187.35H187.34H187.33H187.32H187.31H187.3H187.29H187.28H187.27H187.26H187.25H187.24H187.23H187.22H187.21H187.2H187.19H187.18H187.17H187.16H187.15H187.14H187.13H187.12H187.11H187.1H187.09H187.08H187.07H187.06H187.05H187.04H187.03H187.02H187.01H187H186.99H186.98H186.97H186.96H186.95H186.94H186.93H186.92H186.91H186.9H186.89H186.88H186.87H186.86H186.85H186.84H186.83H186.82H186.81H186.8H186.79H186.78H186.77H186.76H186.75H186.74H186.73H186.72H186.71H186.7H186.69H186.68H186.67H186.66H186.65H186.64H186.63H186.62H186.61H186.6H186.59H186.58H186.57H186.56H186.55H186.54H186.53H186.52H186.51H186.5H186.49H186.48H186.47H186.46H186.45H186.44H186.43H186.42H186.41H186.4H186.39H186.38H186.37H186.36H186.35H186.34H186.33H186.32H186.31H186.3H186.29H186.28H186.27H186.26H186.25H186.24H186.23H186.22H186.21H186.2H186.19H186.18H186.17H186.16H186.15H186.14H186.13H186.12H186.11H186.1H186.09H186.08H186.07H186.06H186.05H186.04H186.03H186.02H186.01H186H185.99H185.98H185.97H185.96H185.95H185.94H185.93H185.92H185.91H185.9H185.89H185.88H185.87H185.86H185.85H185.84H185.83H185.82H185.81H185.8H185.79H185.78H185.77H185.76H185.75H185.74H185.73H185.72H185.71H185.7H185.69H186.41H186.4H186.39H186.38H186.37H186.36H186.35H186.34H186.33H186.32H186.31H186.3H186.29H186.28H186.27H186.26H186.25H186.24H186.23H186.22H186.21H186.2H186.19H186.18H186.17H186.16H186.15H186.14H186.13H186.12H186.11H186.1H186.09H186.08H186.07H186.06H186.05H186.04H186.03H186.02H186.01H186H185.99H185.98H185.97H185.96H185.95H185.94H185.93H185.92H185.91H185.9H185.89H185.88H185.87H185.86H185.85H185.84H185.83H185.82H185.81H185.8H185.79H185.78H185.77H185.76H185.75H185.74H185.73H185.72H185.71H185.7C185.66 482.354 185.62 482.114 185.58 481.814C185.51 481.194 185.47 480.354 185.46 479.504C185.46 478.654 185.49 477.814 185.56 477.194C185.59 476.884 185.63 476.654 185.68 476.504H187.8C187.84 476.664 187.88 476.894 187.91 477.194C188.04 477.814 188.08 478.664 188.09 479.504Z" stroke="#414141"/>
<path d="M185.73 479.004C185.73 478.324 185.93 477.764 186.17 477.734C186.17 477.734 185.98 478.304 185.98 478.974C185.98 479.654 186.17 480.184 186.17 480.184C185.93 480.214 185.73 479.684 185.73 479.004Z" fill="#D9D9D9"/>
<path d="M184.41 478.504C184.41 478.504 184.45 478.504 184.7 478.504C184.95 478.504 185.23 479.294 185.23 479.294" stroke="#414141"/>
<path d="M184.12 476.944C183.86 476.944 183.65 477.574 183.65 478.134C183.65 478.684 183.7 479.324 183.97 479.324C184.23 479.324 184.44 478.694 184.44 478.134C184.44 477.574 184.38 476.944 184.12 476.944Z" fill="#272727"/>
<path d="M183.22 476.954C182.54 477.604 182.76 479.034 183.48 479.724C182.34 479.414 182.61 476.894 183.22 476.954Z" fill="#5C423C"/>
<path d="M185.69 472.604C187.17 467.384 191.22 465.884 195.5 465.884C202.27 465.884 207.03 470.654 207.03 478.984C205.45 486.044 205.39 487.144 198.27 489.994C194.32 491.574 190.76 491.184 185.69 489.994C184.04 489.604 184.49 483.664 182.46 482.884C185.23 478.524 184.83 475.634 185.69 472.604Z" fill="#B5916F"/>
<path d="M191.53 494.334C194.95 493.544 196.29 493.544 199.45 494.334C204.98 496.704 202.32 510.434 202.32 525.904C198.9 533.404 191.53 529.854 191.53 529.854C191.53 529.854 189.57 524.374 189.17 517.654C188.35 503.614 188.11 495.124 191.53 494.334Z" fill="#6E448E"/>
<g opacity="0.35">
<path opacity="0.35" d="M199.45 494.334C204.59 495.914 203.05 510.194 202.61 525.864C199.86 533.424 193.92 529.844 193.92 529.844C201.43 512.364 194.32 492.754 199.45 494.334Z" fill="#764F99"/>
</g>
<path d="M212.19 468.754C209.62 470.394 205.85 469.084 203.76 465.824C201.67 462.564 202.07 458.614 204.64 456.974C207.21 455.334 210.98 456.644 213.07 459.904C215.16 463.164 214.76 467.124 212.19 468.754Z" fill="#272429"/>
<path d="M195.27 496.154C198.18 498.944 194.87 500.684 192.55 504.624C190.19 506.644 191.25 513.324 185.88 510.274C182.31 506.704 186.41 509.364 188.18 502.014C188.81 499.394 189.83 492.354 195.27 496.154Z" fill="#5E3E78"/>
<path d="M189.6 508.254C190.63 511.444 187.01 511.924 183.12 514.524C179.23 517.124 177.53 521.684 174.76 517.264C172.02 512.884 176.89 513.644 180.78 511.044C184.67 508.454 186.67 504.164 189.6 508.254Z" fill="#6E448E"/>
<path d="M170.4 516.574C172.42 515.574 174.69 516.024 175.47 517.584C176.24 519.144 175.23 521.224 173.21 522.224C171.19 523.224 168.92 522.774 168.14 521.214C167.36 519.654 168.37 517.574 170.4 516.574Z" fill="#B5916F"/>
<path d="M188.09 479.504C188.1 480.354 188.07 481.194 188 481.814C187.97 482.124 187.93 482.354 187.88 482.504H187.87H187.86H187.85H187.84H187.83H187.82H187.81H187.8H187.79H187.78H187.77H187.76H187.75H187.74H187.73H187.72H187.71H187.7H187.69H187.68H187.67H187.66H187.65H187.64H187.63H187.62H187.61H187.6H187.59H187.58H187.57H187.56H187.55H187.54H187.53H187.52H187.51H187.5H187.49H187.48H187.47H187.46H187.45H187.44H187.43H187.42H187.41H187.4H187.39H187.38H187.37H187.41H187.4H187.39H187.38H187.37H187.36H187.35H187.34H187.33H187.32H187.31H187.3H187.29H187.28H187.27H187.26H187.25H187.24H187.23H187.22H187.21H187.2H187.19H187.18H187.17H187.16H187.15H187.14H187.13H187.12H187.11H187.1H187.09H187.08H187.07H187.06H187.05H187.04H187.03H187.02H187.01H187H186.99H186.98H186.97H186.96H186.95H186.94H186.93H186.92H186.91H186.9H186.89H186.88H186.87H186.86H186.85H186.84H186.83H186.82H186.81H186.8H186.79H186.78H186.77H186.76H186.75H186.74H186.73H186.72H186.71H186.7H186.69H186.68H186.67H186.66H186.65H186.64H186.63H186.62H186.61H186.6H186.59H186.58H186.57H186.56H186.55H186.54H186.53H186.52H186.51H186.5H186.49H186.48H186.47H186.46H186.45H186.44H186.43H186.42H186.41H186.4H186.39H186.38H186.37H186.36H186.35H186.34H186.33H186.32H186.31H186.3H186.29H186.28H186.27H186.26H186.25H186.24H186.23H186.22H186.21H186.2H186.19H186.18H186.17H186.16H186.15H186.14H186.13H186.12H186.11H186.1H186.09H186.08H186.07H186.06H186.05H186.04H186.03H186.02H186.01H186H185.99H185.98H185.97H185.96H185.95H185.94H185.93H185.92H185.91H185.9H185.89H185.88H185.87H185.86H185.85H185.84H185.83H185.82H185.81H185.8H185.79H185.78H185.77H185.76H185.75H185.74H185.73H185.72H185.71H185.7H185.69H186.41H186.4H186.39H186.38H186.37H186.36H186.35H186.34H186.33H186.32H186.31H186.3H186.29H186.28H186.27H186.26H186.25H186.24H186.23H186.22H186.21H186.2H186.19H186.18H186.17H186.16H186.15H186.14H186.13H186.12H186.11H186.1H186.09H186.08H186.07H186.06H186.05H186.04H186.03H186.02H186.01H186H185.99H185.98H185.97H185.96H185.95H185.94H185.93H185.92H185.91H185.9H185.89H185.88H185.87H185.86H185.85H185.84H185.83H185.82H185.81H185.8H185.79H185.78H185.77H185.76H185.75H185.74H185.73H185.72H185.71H185.7C185.66 482.354 185.62 482.114 185.58 481.814C185.51 481.194 185.47 480.354 185.46 479.504C185.46 478.654 185.49 477.814 185.56 477.194C185.59 476.884 185.63 476.654 185.68 476.504H187.8C187.84 476.664 187.88 476.894 187.91 477.194C188.04 477.814 188.08 478.664 188.09 479.504Z" stroke="#414141"/>
<path d="M185.73 479.004C185.73 478.324 185.93 477.764 186.17 477.734C186.17 477.734 185.98 478.304 185.98 478.974C185.98 479.654 186.17 480.184 186.17 480.184C185.93 480.214 185.73 479.684 185.73 479.004Z" fill="#D9D9D9"/>
<path d="M184.41 478.504C184.41 478.504 184.45 478.504 184.7 478.504C184.95 478.504 185.23 479.294 185.23 479.294" stroke="#414141"/>
<path d="M210.81 458.664C212.37 459.634 212.95 461.744 212.56 463.094C211.22 460.634 211.39 459.114 207.07 458.534C208.36 457.324 209.25 457.694 210.81 458.664Z" fill="#444047"/>
<path d="M196.37 475.684C198.35 483.664 201.93 484.754 203.48 488.804C205.77 487.074 209.41 481.634 207.35 475.684C205.29 469.734 202.39 464.344 195.18 464.304C191.41 464.284 188.6 465.764 186.12 468.644C184.76 470.224 184.43 472.204 184.43 473.384C187.59 478.914 197.16 490.774 193.21 483.664C189.26 476.554 195.88 473.714 196.37 475.684Z" fill="#272429"/>
<path d="M199.45 465.884C200.24 466.474 193.06 460.564 186.12 468.654C184.76 470.234 184.43 472.214 184.43 473.394C187.59 478.924 197.16 490.784 193.21 483.674C186.02 470.734 194.71 462.324 199.45 465.884Z" fill="#37323A"/>
<path d="M231.08 0.35437C103.46 0.35437 0 46.3144 0 176.524C0 267.844 113.66 376.344 181.55 433.004H280.6C348.49 376.344 462.15 267.844 462.15 176.524C462.16 46.3244 358.7 0.35437 231.08 0.35437Z" fill="#73455F"/>
<path d="M231.08 0.35437C117.36 0.35437 25.1801 46.3144 25.1801 176.524C25.1801 267.844 126.46 376.344 186.96 433.004H275.22C335.72 376.344 437 267.844 437 176.524C436.98 46.3244 344.8 0.35437 231.08 0.35437Z" fill="#E07E7E"/>
<path d="M231.08 0.35437C154.59 0.35437 92.58 46.3144 92.58 176.524C92.58 267.844 160.7 376.344 201.39 433.004H260.75C301.44 376.344 369.56 267.844 369.56 176.524C369.57 46.3244 307.57 0.35437 231.08 0.35437Z" fill="#73455F"/>
<path d="M231.08 0.35437C201.3 0.35437 177.15 46.3144 177.15 176.524C177.15 267.844 203.68 376.344 219.52 433.004H242.63C258.47 376.344 285 267.844 285 176.524C285.01 46.3244 260.86 0.35437 231.08 0.35437Z" fill="#E07E7E"/>
<path class="ballonLight" opacity="0.25" d="M231.08 0.35437C103.46 0.35437 0 46.3144 0 176.524C0 267.844 113.66 376.344 181.55 433.004H280.6C348.49 376.344 462.15 267.844 462.15 176.524C462.15 46.3244 358.7 0.35437 231.08 0.35437Z" fill="#FFDE1D" fill-opacity="0.55"/>
<g opacity="0.35">
<path opacity="0.35" d="M217.6 0.354342C213.9 0.494342 296.48 20.8843 356.1 62.8643C420.62 108.294 462.73 175.324 462.73 171.944C462.72 40.8044 346.29 -4.54566 217.6 0.354342Z" fill="white"/>
</g>
<path d="M267.41 595.004H186.41C177.02 595.004 169.41 587.394 169.41 578.004V539.004C169.41 529.614 177.02 522.004 186.41 522.004H267.41C276.8 522.004 284.41 529.614 284.41 539.004V578.004C284.41 587.394 276.8 595.004 267.41 595.004Z" fill="#6B435B"/>
<path d="M284.41 569.504H170.41" stroke="#4F3547" stroke-miterlimit="10"/>
<path d="M284.41 555.504L169.41 555.224" stroke="#4F3547" stroke-miterlimit="10"/>
<path d="M284.41 542.504H169.41" stroke="#4F3547" stroke-miterlimit="10"/>
</svg>

