<svg width="955" height="639" viewBox="0 0 955 639" fill="none" xmlns="http://www.w3.org/2000/svg">
<path d="M754.638 189.712C776.02 183.09 786.661 158.768 796.532 188.219C806.482 217.907 783.399 207.15 762.018 213.771C740.637 220.392 728.548 234.271 718.632 217.051C706.815 186.435 733.257 196.333 754.638 189.712Z" fill="#3F2B4F"/>
<path d="M787.046 162.366C791.105 140.354 778.546 120.385 802.961 124.158C827.572 127.958 810.774 144.05 806.714 166.058C802.654 188.066 807.39 204.858 791.435 206.37C765.425 203.845 782.986 184.378 787.046 162.366Z" fill="#4C2F63"/>
<path d="M826.456 110.994C822.756 118.46 811.91 120.624 802.229 115.828C792.548 111.032 787.699 101.09 791.399 93.628C795.099 86.166 805.945 83.997 815.626 88.794C825.307 93.591 830.156 103.527 826.456 110.994Z" fill="#A58466"/>
<path d="M926.049 98.979C922.426 134.002 898.399 121.099 854.158 111.879C784.11 93.445 785.258 108.706 782.267 98.979C774.894 75.015 808.074 101.492 854.158 80.545C894.712 62.112 931.579 45.522 926.049 98.979Z" fill="#6B4C45"/>
<path d="M922.362 93.453C922.362 104.653 917.41 117.417 911.302 117.417C905.194 117.417 903.928 104.647 903.928 93.453C903.928 82.259 908.879 69.485 914.988 69.485C921.097 69.485 922.362 82.253 922.362 93.453Z" fill="#272727"/>
<path d="M911.016 115.785C917.598 100.285 918.239 82.605 912.86 73.385C920.229 73.388 922.072 104.728 911.016 115.785Z" fill="white"/>
<path d="M913.145 63.955C898.786 78.679 895.258 108.165 909.675 121.087C897.086 122.912 889.78 71.294 913.145 63.955Z" fill="#5C423C"/>
<path d="M789.915 319.183C806.188 326.577 822.77 334.033 846.997 353.521C850.458 356.304 907.242 431.057 902.372 441.776C893.587 461.113 821.234 346.253 787.352 351.091C737.334 354.32 703.6 333.618 716.485 305.258C727.614 280.765 753.404 302.594 789.915 319.183Z" fill="#121113"/>
<path d="M789.915 319.184C806.188 326.578 822.77 334.034 846.997 353.521C850.458 356.307 907.242 431.057 902.372 441.776C893.586 461.113 846.272 340.028 812.385 344.868C789.916 329.294 795.083 327.564 789.915 319.184Z" fill="#211F22"/>
<path d="M789.889 116.444C781.008 119.86 782.967 145.904 775.746 147.593C753.546 152.784 737.873 159.42 720.67 147.593C692.989 128.558 689.224 130.288 682.303 99.37C682.303 62.925 703.159 42.033 732.789 42.033C751.525 42.033 769.271 48.604 775.752 71.451C779.516 84.733 777.779 97.409 789.889 116.444Z" fill="#B5916F"/>
<path d="M760.474 268.728C759.32 286.902 755.854 304.855 750.16 322.153C750.16 322.153 717.89 337.706 702.907 304.872C702.907 237.111 695.992 170.084 714.432 166.628C729.415 175.703 737.482 175.268 750.16 166.628C765.137 170.084 764.089 207.263 760.474 268.728Z" fill="#6E448E"/>
<path d="M751.534 322.152C751.534 322.152 718.64 337.705 703.372 304.872C703.372 237.111 694.715 170.089 715.116 166.628C734.151 216.812 709.924 246.228 751.534 322.152Z" fill="#5D3A79"/>
<path d="M902.498 497.73C902.364 504.102 889.887 509.006 874.627 508.687C859.367 508.368 847.106 502.945 847.239 496.574C847.372 490.203 859.85 485.298 875.11 485.617C890.37 485.936 902.631 491.358 902.498 497.73Z" fill="#E8E8E8"/>
<path d="M954.413 456.198C954.279 462.57 941.802 467.474 926.542 467.155C911.282 466.836 899.021 461.413 899.154 455.042C899.287 448.671 911.765 443.766 927.025 444.085C942.285 444.404 954.546 449.826 954.413 456.198Z" fill="#E3E3E3"/>
<path d="M655.848 15.893C664.965 1.65799 681.481 -4.07701 692.739 3.08299C703.997 10.243 705.731 27.583 696.614 41.822C687.497 56.061 670.979 61.792 659.72 54.632C648.461 47.472 646.73 30.128 655.848 15.893Z" fill="#272429"/>
<path d="M776.797 324.921C794.249 332.85 821.041 327.565 827.963 355.253C841.807 386.402 865.083 460.131 859.863 471.625C850.441 492.36 808.929 370.825 788.163 367.366C724.134 369.098 684.231 340.398 698.049 309.987C709.984 283.72 737.643 307.13 776.797 324.921Z" fill="#272429"/>
<path d="M830.442 356.432C843.417 387.3 864.91 460.511 859.664 472.06C850.199 492.893 828.886 384.341 810.658 367.365C790.858 343.508 770.78 354.854 777.78 344.865C790.309 327.001 819.036 329.293 830.442 356.432Z" fill="#373439"/>
<path d="M765.023 200.095C786.405 193.473 797.046 169.151 806.917 198.602C816.867 228.29 793.784 217.533 772.403 224.154C751.022 230.775 738.933 244.654 729.017 227.434C717.2 196.818 743.642 206.716 765.023 200.095Z" fill="#5E3E78"/>
<path d="M797.429 172.749C801.488 150.737 788.929 130.768 813.344 134.541C837.955 138.341 821.157 154.433 817.097 176.441C813.037 198.449 817.773 215.241 801.818 216.753C775.808 214.228 793.369 194.761 797.429 172.749Z" fill="#6E448E"/>
<path d="M836.839 121.376C833.139 128.842 822.293 131.006 812.612 126.21C802.931 121.414 798.082 111.472 801.782 104.01C805.482 96.548 816.328 94.379 826.009 99.176C835.69 103.973 840.539 113.909 836.839 121.376Z" fill="#B5916F"/>
<path d="M766.155 91.545C766.247 90.6068 766.398 89.6752 766.607 88.756H775.186C775.418 89.6707 775.577 90.6023 775.663 91.542C775.959 94.6388 776.087 97.7494 776.048 100.86C776.049 103.976 775.893 107.091 775.579 110.191C775.487 111.131 775.331 112.064 775.111 112.983H766.485C766.257 112.07 766.101 111.141 766.019 110.204C765.737 107.106 765.621 103.995 765.671 100.885C765.701 97.456 765.872 94.063 766.155 91.545Z" stroke="#414141"/>
<path d="M773.626 104.692C774.18 102.98 774.464 101.192 774.467 99.392C774.454 97.546 774.17 95.7119 773.626 93.948C774.694 94.042 775.56 96.523 775.56 99.49C775.56 102.457 774.694 104.786 773.626 104.692Z" fill="#D9D9D9"/>
<path d="M895.229 501.427C894.594 499.744 893.701 498.17 892.581 496.762C891.42 495.328 890.055 494.071 888.529 493.033C889.422 492.441 891.647 493.839 893.498 496.158C895.349 498.477 896.129 500.838 895.229 501.427Z" fill="white"/>
<path d="M900.409 496.585C899.412 495.088 898.188 493.756 896.781 492.636C895.326 491.498 893.713 490.579 891.992 489.908C892.729 489.129 895.211 489.995 897.536 491.839C899.861 493.683 901.147 495.809 900.409 496.585Z" fill="white"/>
<path d="M777.779 100.869C777.779 100.869 779.005 97.408 780.086 97.408H781.24" stroke="#414141"/>
<path d="M754.638 189.712C776.02 183.09 786.661 158.768 796.532 188.219C806.482 217.907 783.399 207.15 762.018 213.771C740.637 220.392 728.548 234.271 718.632 217.051C706.815 186.435 733.257 196.333 754.638 189.712Z" fill="#3F2B4F"/>
<path d="M787.046 162.366C791.105 140.354 778.546 120.385 802.961 124.158C827.572 127.958 810.774 144.05 806.714 166.058C802.654 188.066 807.39 204.858 791.435 206.37C765.425 203.845 782.986 184.378 787.046 162.366Z" fill="#4C2F63"/>
<path d="M826.456 110.994C822.756 118.46 811.91 120.624 802.229 115.828C792.548 111.032 787.699 101.09 791.399 93.628C795.099 86.166 805.945 83.997 815.626 88.794C825.307 93.591 830.156 103.527 826.456 110.994Z" fill="#A58466"/>
<g filter="url(#filter0_d)">
<path d="M926.049 98.98C922.426 134.004 898.399 121.1 854.158 111.88C784.11 93.446 785.258 108.707 782.267 98.98C774.894 75.016 808.074 101.494 854.158 80.546C894.712 62.113 931.579 45.523 926.049 98.98Z" fill="#6B4C45"/>
</g>
<path d="M922.362 93.453C922.362 104.653 917.41 117.417 911.302 117.417C905.194 117.417 903.928 104.647 903.928 93.453C903.928 82.259 908.879 69.485 914.988 69.485C921.097 69.485 922.362 82.253 922.362 93.453Z" fill="#272727"/>
<path d="M781.24 95.678C781.24 98.104 782.17 100.869 783.317 100.869C784.464 100.869 784.701 98.104 784.701 95.678C784.701 93.252 783.771 90.487 782.624 90.487C781.477 90.487 781.24 93.252 781.24 95.678Z" fill="#272727"/>
<path d="M911.016 115.784C917.598 100.284 918.239 82.604 912.86 73.384C920.229 73.387 922.072 104.728 911.016 115.784Z" fill="#DDDACF"/>
<path d="M913.145 63.955C898.786 78.679 895.258 108.164 909.675 121.086C897.086 122.912 889.78 71.294 913.145 63.955Z" fill="#5C423C"/>
<path d="M785.395 102.665C788.557 99.637 789.524 93.39 786.551 90.535C789.244 90.239 790.421 101.275 785.395 102.665Z" fill="#5C423C"/>
<path d="M789.915 319.183C806.188 326.577 822.77 334.033 846.997 353.521C850.458 356.304 907.242 431.057 902.372 441.776C893.587 461.113 821.234 346.253 787.352 351.091C737.334 354.32 703.6 333.618 716.485 305.258C727.614 280.765 753.404 302.594 789.915 319.183Z" fill="#121113"/>
<g filter="url(#filter1_d)">
<path d="M789.917 319.189C806.19 326.583 822.772 334.039 846.999 353.526C850.46 356.312 907.244 431.062 902.374 441.781C893.588 461.118 846.274 340.033 812.387 344.873C789.918 329.299 795.085 327.569 789.917 319.189Z" fill="#211F22"/>
</g>
<g filter="url(#filter2_d)">
<path d="M789.89 116.441C781.009 119.857 782.968 145.901 775.747 147.59C753.547 152.781 737.874 159.417 720.671 147.59C692.99 128.555 689.225 130.285 682.304 99.367C682.304 62.922 703.16 42.03 732.79 42.03C751.526 42.03 769.272 48.601 775.753 71.448C779.517 84.73 777.78 97.406 789.89 116.441Z" fill="#B5916F"/>
</g>
<g filter="url(#filter3_d)">
<path d="M760.477 268.73C759.323 286.904 755.857 304.857 750.163 322.155C750.163 322.155 717.893 337.708 702.91 304.874C702.91 237.113 695.995 170.086 714.435 166.63C729.418 175.705 737.485 175.27 750.163 166.63C765.14 170.086 764.092 207.265 760.477 268.73Z" fill="#6E448E"/>
</g>
<path d="M751.534 322.152C751.534 322.152 718.64 337.705 703.372 304.872C703.372 237.111 694.715 170.089 715.116 166.628C734.151 216.812 709.924 246.228 751.534 322.152Z" fill="#5D3A79"/>
<g filter="url(#filter4_d)">
<path d="M950.409 456.201C950.275 462.573 937.798 467.477 922.538 467.158C907.278 466.839 895.017 461.416 895.15 455.045C895.283 448.674 907.761 443.769 923.021 444.088C938.281 444.407 950.542 449.829 950.409 456.201Z" fill="#DDDACF"/>
</g>
<path d="M655.848 15.893C664.965 1.65799 681.481 -4.07701 692.739 3.08299C703.997 10.243 705.731 27.583 696.614 41.822C687.497 56.061 670.979 61.792 659.72 54.632C648.461 47.472 646.73 30.128 655.848 15.893Z" fill="#272429"/>
<g filter="url(#filter5_d)">
<path d="M765.025 200.093C786.407 193.471 797.048 169.149 806.919 198.6C816.869 228.288 793.786 217.531 772.405 224.152C751.024 230.773 738.935 244.652 729.019 227.432C717.202 196.816 743.644 206.714 765.025 200.093Z" fill="#5E3E78"/>
</g>
<path d="M797.43 172.75C801.489 150.738 788.93 130.769 813.345 134.542C837.956 138.342 821.158 154.434 817.098 176.442C813.038 198.45 817.774 215.242 801.819 216.754C775.809 214.229 793.37 194.762 797.43 172.75Z" fill="#6E448E"/>
<path d="M819.744 135.722C833.833 136.567 822.744 154.722 818.681 176.738C814.618 198.754 816.581 212.362 807.197 215.083C809.115 203.146 805.097 204.7 814.119 176.738C816.581 140.671 822.005 148.243 819.744 135.722Z" fill="#8B55B5"/>
<g filter="url(#filter6_d)">
<path d="M836.835 121.378C833.135 128.844 822.289 131.008 812.608 126.212C802.927 121.416 798.078 111.474 801.778 104.012C805.478 96.55 816.324 94.381 826.005 99.178C835.686 103.975 840.535 113.911 836.835 121.378Z" fill="#B5916F"/>
</g>
<path d="M766.155 91.545C766.247 90.6068 766.398 89.6752 766.607 88.756H775.186C775.418 89.6707 775.577 90.6023 775.663 91.542C775.959 94.6388 776.087 97.7494 776.048 100.86C776.049 103.976 775.893 107.091 775.579 110.191C775.487 111.131 775.331 112.064 775.111 112.983H766.485C766.257 112.07 766.101 111.141 766.019 110.204C765.737 107.106 765.621 103.995 765.671 100.885C765.701 97.456 765.872 94.063 766.155 91.545Z" stroke="#414141" stroke-width="2"/>
<path d="M773.626 104.692C774.18 102.98 774.464 101.192 774.467 99.392C774.454 97.546 774.17 95.7119 773.626 93.948C774.694 94.042 775.56 96.523 775.56 99.49C775.56 102.457 774.694 104.786 773.626 104.692Z" fill="#DDDACF"/>
<path d="M950.606 459.895C949.971 458.212 949.078 456.638 947.958 455.23C946.797 453.796 945.431 452.54 943.906 451.502C944.799 450.91 947.024 452.308 948.875 454.627C950.726 456.946 951.506 459.306 950.606 459.895Z" fill="white"/>
<path d="M900.409 496.585C899.412 495.088 898.188 493.756 896.781 492.636C895.326 491.498 893.713 490.579 891.992 489.908C892.729 489.129 895.211 489.995 897.536 491.839C899.861 493.683 901.147 495.809 900.409 496.585Z" fill="white"/>
<path d="M777.779 100.869C777.779 100.869 779.005 97.408 780.086 97.408H781.24" stroke="#414141"/>
<path d="M698.121 24.992C692.042 6.90101 685.632 8.86901 673.949 5.16301C679.436 2.34001 688.976 3.11101 694.442 8.99701C699.908 14.883 702.228 18.438 698.121 24.992Z" fill="#444047"/>
<g filter="url(#filter7_d)">
<path d="M742.82 119.906C725.52 151.055 767.399 99.14 781.243 74.913C781.243 69.722 779.791 61.069 773.848 54.147C762.985 41.496 750.684 35.037 734.175 35.12C702.59 35.287 689.894 58.9 680.875 84.957C678.089 93.006 687.795 134.836 697.827 142.398C704.627 124.68 720.327 119.898 728.977 84.957C731.117 76.313 760.125 88.757 742.82 119.906Z" fill="#272429"/>
</g>
<path d="M742.818 119.906C725.514 151.058 767.395 99.14 781.241 74.913C781.241 69.722 779.79 61.069 773.847 54.147C743.445 18.739 712.02 44.628 715.481 42.033C736.247 26.458 774.285 63.265 742.818 119.906Z" fill="#37323A"/>
<path d="M184 638.72C285.62 638.72 368 580.517 368 508.72C368 436.923 285.62 378.72 184 378.72C82.3796 378.72 0 436.923 0 508.72C0 580.517 82.3796 638.72 184 638.72Z" fill="#676560"/>
<path d="M446 638.72C564.189 638.72 660 580.517 660 508.72C660 436.923 564.189 378.72 446 378.72C327.811 378.72 232 436.923 232 508.72C232 580.517 327.811 638.72 446 638.72Z" fill="#676560"/>
<path d="M251 529.72C332.186 529.72 398 462.115 398 378.72C398 295.325 332.186 227.72 251 227.72C169.814 227.72 104 295.325 104 378.72C104 462.115 169.814 529.72 251 529.72Z" fill="#676560"/>
<path d="M723.5 587.72C821.531 587.72 901 533.546 901 466.72C901 399.894 821.531 345.72 723.5 345.72C625.469 345.72 546 399.894 546 466.72C546 533.546 625.469 587.72 723.5 587.72Z" fill="#676560"/>
<path d="M553.5 506.72C646.836 506.72 722.5 448.517 722.5 376.72C722.5 304.923 646.836 246.72 553.5 246.72C460.164 246.72 384.5 304.923 384.5 376.72C384.5 448.517 460.164 506.72 553.5 506.72Z" fill="#676560"/>
<g filter="url(#filter8_d)">
<path d="M776.794 324.923C794.246 332.852 821.038 327.567 827.96 355.255C841.804 386.404 865.08 460.133 859.86 471.627C850.438 492.362 808.926 370.827 788.16 367.368C724.131 369.1 684.228 340.4 698.046 309.989C709.981 283.722 737.64 307.132 776.794 324.923Z" fill="#272429"/>
</g>
<g filter="url(#filter9_d)">
<path d="M737.974 337.942C751.414 351.381 791.619 358.708 788.159 367.36C724.131 369.09 684.227 340.395 698.046 309.981C708.556 286.85 717.208 317.176 737.974 337.942Z" fill="#1A191C"/>
</g>
<path d="M830.441 356.432C843.416 387.3 864.909 460.511 859.663 472.056C850.198 492.891 849.177 399.739 821.04 365.634C808.86 350.874 796.813 332.754 784.699 332.754C762.876 332.754 819.034 329.294 830.441 356.432Z" fill="#312E33"/>
<g filter="url(#filter10_d)">
<path d="M902.499 497.731C902.365 504.103 889.888 509.007 874.628 508.688C859.368 508.369 847.107 502.946 847.24 496.575C847.373 490.204 859.851 485.299 875.111 485.618C890.371 485.937 902.632 491.359 902.499 497.731Z" fill="#DDDACF"/>
</g>
<defs>
<filter id="filter0_d" x="775.24" y="59.7998" width="157.361" height="71.2217" filterUnits="userSpaceOnUse" color-interpolation-filters="sRGB">
<feFlood flood-opacity="0" result="BackgroundImageFix"/>
<feColorMatrix in="SourceAlpha" type="matrix" values="0 0 0 0 0 0 0 0 0 0 0 0 0 0 0 0 0 0 127 0"/>
<feOffset dy="3"/>
<feGaussianBlur stdDeviation="3"/>
<feColorMatrix type="matrix" values="0 0 0 0 0 0 0 0 0 0 0 0 0 0 0 0 0 0 0.161 0"/>
<feBlend mode="normal" in2="BackgroundImageFix" result="effect1_dropShadow"/>
<feBlend mode="normal" in="SourceGraphic" in2="effect1_dropShadow" result="shape"/>
</filter>
<filter id="filter1_d" x="786.917" y="319.189" width="118.753" height="130.686" filterUnits="userSpaceOnUse" color-interpolation-filters="sRGB">
<feFlood flood-opacity="0" result="BackgroundImageFix"/>
<feColorMatrix in="SourceAlpha" type="matrix" values="0 0 0 0 0 0 0 0 0 0 0 0 0 0 0 0 0 0 127 0"/>
<feOffset dy="3"/>
<feGaussianBlur stdDeviation="1.5"/>
<feColorMatrix type="matrix" values="0 0 0 0 0 0 0 0 0 0 0 0 0 0 0 0 0 0 0.161 0"/>
<feBlend mode="normal" in2="BackgroundImageFix" result="effect1_dropShadow"/>
<feBlend mode="normal" in="SourceGraphic" in2="effect1_dropShadow" result="shape"/>
</filter>
<filter id="filter2_d" x="679.304" y="42.03" width="113.586" height="118.168" filterUnits="userSpaceOnUse" color-interpolation-filters="sRGB">
<feFlood flood-opacity="0" result="BackgroundImageFix"/>
<feColorMatrix in="SourceAlpha" type="matrix" values="0 0 0 0 0 0 0 0 0 0 0 0 0 0 0 0 0 0 127 0"/>
<feOffset dy="3"/>
<feGaussianBlur stdDeviation="1.5"/>
<feColorMatrix type="matrix" values="0 0 0 0 0 0 0 0 0 0 0 0 0 0 0 0 0 0 0.161 0"/>
<feBlend mode="normal" in2="BackgroundImageFix" result="effect1_dropShadow"/>
<feBlend mode="normal" in="SourceGraphic" in2="effect1_dropShadow" result="shape"/>
</filter>
<filter id="filter3_d" x="698.64" y="166.63" width="67.1154" height="165.206" filterUnits="userSpaceOnUse" color-interpolation-filters="sRGB">
<feFlood flood-opacity="0" result="BackgroundImageFix"/>
<feColorMatrix in="SourceAlpha" type="matrix" values="0 0 0 0 0 0 0 0 0 0 0 0 0 0 0 0 0 0 127 0"/>
<feOffset dy="3"/>
<feGaussianBlur stdDeviation="1.5"/>
<feColorMatrix type="matrix" values="0 0 0 0 0 0 0 0 0 0 0 0 0 0 0 0 0 0 0.161 0"/>
<feBlend mode="normal" in2="BackgroundImageFix" result="effect1_dropShadow"/>
<feBlend mode="normal" in="SourceGraphic" in2="effect1_dropShadow" result="shape"/>
</filter>
<filter id="filter4_d" x="892.149" y="444.073" width="61.2611" height="29.0994" filterUnits="userSpaceOnUse" color-interpolation-filters="sRGB">
<feFlood flood-opacity="0" result="BackgroundImageFix"/>
<feColorMatrix in="SourceAlpha" type="matrix" values="0 0 0 0 0 0 0 0 0 0 0 0 0 0 0 0 0 0 127 0"/>
<feOffset dy="3"/>
<feGaussianBlur stdDeviation="1.5"/>
<feColorMatrix type="matrix" values="0 0 0 0 0 0 0 0 0 0 0 0 0 0 0 0 0 0 0.161 0"/>
<feBlend mode="normal" in2="BackgroundImageFix" result="effect1_dropShadow"/>
<feBlend mode="normal" in="SourceGraphic" in2="effect1_dropShadow" result="shape"/>
</filter>
<filter id="filter5_d" x="720.096" y="181.365" width="95.2058" height="63.3644" filterUnits="userSpaceOnUse" color-interpolation-filters="sRGB">
<feFlood flood-opacity="0" result="BackgroundImageFix"/>
<feColorMatrix in="SourceAlpha" type="matrix" values="0 0 0 0 0 0 0 0 0 0 0 0 0 0 0 0 0 0 127 0"/>
<feOffset dy="3"/>
<feGaussianBlur stdDeviation="3"/>
<feColorMatrix type="matrix" values="0 0 0 0 0 0 0 0 0 0 0 0 0 0 0 0 0 0 0.161 0"/>
<feBlend mode="normal" in2="BackgroundImageFix" result="effect1_dropShadow"/>
<feBlend mode="normal" in="SourceGraphic" in2="effect1_dropShadow" result="shape"/>
</filter>
<filter id="filter6_d" x="794.536" y="96.6276" width="49.5402" height="44.1354" filterUnits="userSpaceOnUse" color-interpolation-filters="sRGB">
<feFlood flood-opacity="0" result="BackgroundImageFix"/>
<feColorMatrix in="SourceAlpha" type="matrix" values="0 0 0 0 0 0 0 0 0 0 0 0 0 0 0 0 0 0 127 0"/>
<feOffset dy="6"/>
<feGaussianBlur stdDeviation="3"/>
<feColorMatrix type="matrix" values="0 0 0 0 0 0 0 0 0 0 0 0 0 0 0 0 0 0 0.161 0"/>
<feBlend mode="normal" in2="BackgroundImageFix" result="effect1_dropShadow"/>
<feBlend mode="normal" in="SourceGraphic" in2="effect1_dropShadow" result="shape"/>
</filter>
<filter id="filter7_d" x="678.391" y="35.1192" width="104.852" height="112.279" filterUnits="userSpaceOnUse" color-interpolation-filters="sRGB">
<feFlood flood-opacity="0" result="BackgroundImageFix"/>
<feColorMatrix in="SourceAlpha" type="matrix" values="0 0 0 0 0 0 0 0 0 0 0 0 0 0 0 0 0 0 127 0"/>
<feOffset dy="3"/>
<feGaussianBlur stdDeviation="1"/>
<feColorMatrix type="matrix" values="0 0 0 0 0 0 0 0 0 0 0 0 0 0 0 0 0 0 0.161 0"/>
<feBlend mode="normal" in2="BackgroundImageFix" result="effect1_dropShadow"/>
<feBlend mode="normal" in="SourceGraphic" in2="effect1_dropShadow" result="shape"/>
</filter>
<filter id="filter8_d" x="692.314" y="298.221" width="171.296" height="181.785" filterUnits="userSpaceOnUse" color-interpolation-filters="sRGB">
<feFlood flood-opacity="0" result="BackgroundImageFix"/>
<feColorMatrix in="SourceAlpha" type="matrix" values="0 0 0 0 0 0 0 0 0 0 0 0 0 0 0 0 0 0 127 0"/>
<feOffset dy="3"/>
<feGaussianBlur stdDeviation="1.5"/>
<feColorMatrix type="matrix" values="0 0 0 0 0 0 0 0 0 0 0 0 0 0 0 0 0 0 0.322 0"/>
<feBlend mode="normal" in2="BackgroundImageFix" result="effect1_dropShadow"/>
<feBlend mode="normal" in="SourceGraphic" in2="effect1_dropShadow" result="shape"/>
</filter>
<filter id="filter9_d" x="685.313" y="301.669" width="113.056" height="85.7655" filterUnits="userSpaceOnUse" color-interpolation-filters="sRGB">
<feFlood flood-opacity="0" result="BackgroundImageFix"/>
<feColorMatrix in="SourceAlpha" type="matrix" values="0 0 0 0 0 0 0 0 0 0 0 0 0 0 0 0 0 0 127 0"/>
<feOffset dy="10"/>
<feGaussianBlur stdDeviation="5"/>
<feColorMatrix type="matrix" values="0 0 0 0 0 0 0 0 0 0 0 0 0 0 0 0 0 0 0.161 0"/>
<feBlend mode="normal" in2="BackgroundImageFix" result="effect1_dropShadow"/>
<feBlend mode="normal" in="SourceGraphic" in2="effect1_dropShadow" result="shape"/>
</filter>
<filter id="filter10_d" x="844.239" y="485.603" width="61.2611" height="29.0994" filterUnits="userSpaceOnUse" color-interpolation-filters="sRGB">
<feFlood flood-opacity="0" result="BackgroundImageFix"/>
<feColorMatrix in="SourceAlpha" type="matrix" values="0 0 0 0 0 0 0 0 0 0 0 0 0 0 0 0 0 0 127 0"/>
<feOffset dy="3"/>
<feGaussianBlur stdDeviation="1.5"/>
<feColorMatrix type="matrix" values="0 0 0 0 0 0 0 0 0 0 0 0 0 0 0 0 0 0 0.231 0"/>
<feBlend mode="normal" in2="BackgroundImageFix" result="effect1_dropShadow"/>
<feBlend mode="normal" in="SourceGraphic" in2="effect1_dropShadow" result="shape"/>
</filter>
</defs>
</svg>
