<svg width="877" height="557" viewBox="0 0 877 557" fill="none" xmlns="http://www.w3.org/2000/svg">
<g filter="url(#filter0_d)">
<path d="M641 332C522.8 332 427 390.2 427 462C427 533.8 522.8 549 641 549C759.2 549 872.2 533.8 872.2 462C872.2 390.2 759.2 332 641 332Z" fill="#C9C5C3"/>
<path d="M347 549C228.811 549 141 527.024 141 418.5C141 309.976 236.811 222 355 222C473.189 222 569 309.976 569 418.5C569 527.024 465.189 549 347 549Z" fill="#C9C5C3"/>
<path d="M136.5 549C63.3223 549 4 501.99 4 444C4 386.01 63.3223 339 136.5 339C209.678 339 269 386.01 269 444C269 501.99 209.678 549 136.5 549Z" fill="#C9C5C3"/>
<path d="M569 461C487.814 461 422 413.766 422 355.5C422 297.234 487.814 250 569 250C650.186 250 716 297.234 716 355.5C716 413.766 650.186 461 569 461Z" fill="#C9C5C3"/>
</g>
<path d="M761 113V123" stroke="#ECF0FF"/>
<path d="M779.044 275.119C771.193 302.173 769.784 322.22 769.784 322.22C769.784 322.22 726.569 335.894 706.505 307.026C706.505 247.448 697.244 188.514 721.939 185.475C743.389 178.093 749.562 177.144 769.784 185.475C785.06 191.768 794.478 221.94 779.044 275.119Z" fill="#5E3E78"/>
<path d="M744.372 187.982C722.938 188.346 733.85 183.093 733.267 175.106C732.685 167.12 734.696 159.801 745.009 159.047C755.324 158.292 756.367 166.717 756.948 174.704C757.53 182.691 765.807 187.618 744.372 187.982Z" fill="#B5916F"/>
<path d="M805 300H685V307H805V300Z" fill="#A6A6A6"/>
<path d="M693.208 238.904C687.84 260.73 728.64 305.017 702.97 295.058C677.093 285.019 665.023 248.629 672.625 230.302C680.227 211.973 699.074 182.962 716.435 185.963C744.003 195.257 704.291 225.771 693.208 238.904Z" fill="#5E3E78"/>
<g filter="url(#filter1_d)">
<path d="M794.292 112.528C783.497 145.781 761.886 175.299 746.483 175.299C731.079 175.299 704.842 139.698 698.674 112.528C698.674 80.5019 720.079 54.5392 746.483 54.5392C772.887 54.5392 794.292 80.5019 794.292 112.528Z" fill="#B5916F"/>
</g>
<g filter="url(#filter2_d)">
<path d="M722.803 296.539C719.524 303.158 709.91 305.076 701.327 300.824C692.745 296.571 688.447 287.76 691.726 281.141C695.006 274.523 704.621 272.604 713.202 276.856C721.785 281.108 726.083 289.92 722.803 296.539Z" fill="#B5916F"/>
</g>
<path d="M797.792 238.667C803.16 260.494 762.36 304.781 788.03 294.822C813.906 284.782 825.977 248.392 818.375 230.065C810.773 211.737 791.926 182.725 774.565 185.727C746.996 195.021 786.709 225.534 797.792 238.667Z" fill="#5E3E78"/>
<g filter="url(#filter3_d)">
<path d="M768.196 296.303C771.476 302.922 781.09 304.84 789.672 300.588C798.255 296.335 802.553 287.523 799.273 280.905C795.994 274.287 786.378 272.368 777.797 276.619C769.215 280.872 764.917 289.683 768.196 296.303Z" fill="#B5916F"/>
</g>
<g filter="url(#filter4_d)">
<path d="M780.022 465.732C779.873 472.81 773.293 478.414 765.322 478.247C757.353 478.08 751.013 472.207 751.16 465.129C751.308 458.051 757.89 452.447 765.859 452.614C773.83 452.781 780.17 458.654 780.022 465.732Z" fill="#F7F7F7"/>
</g>
<g filter="url(#filter5_d)">
<path d="M734.001 465.732C733.853 472.81 727.271 478.414 719.302 478.247C711.332 478.08 704.991 472.207 705.139 465.129C705.288 458.051 711.868 452.447 719.839 452.614C727.808 452.781 734.148 458.654 734.001 465.732Z" fill="#F7F7F7"/>
</g>
<g filter="url(#filter6_d)">
<path d="M751.459 0.263961C766.33 2.10887 777.235 13.1226 775.816 24.8639C774.397 36.6053 761.191 44.6278 746.32 42.7829C731.449 40.938 720.544 29.9243 721.963 18.1829C723.383 6.44165 736.588 -1.58095 751.459 0.263961Z" fill="#272429"/>
</g>
<g filter="url(#filter7_d)">
<path d="M794.292 349.036C794.292 375.37 778.02 370.534 742.443 370.534C706.865 370.534 694.916 376.342 688.174 354.889C682.045 326.081 692.165 293.18 742.443 308.166C775.438 294.542 794.292 322.701 794.292 349.036Z" fill="#201E22"/>
</g>
<path d="M779.623 373C779.623 413.317 772.23 446 763.594 446C754.959 446 744.358 413.317 744.358 373C744.358 332.683 735.38 300 763.594 300C787.961 300 779.623 332.683 779.623 373Z" fill="#272429"/>
<path d="M733.587 373.5C733.587 413.541 726 446 717.137 446C708.273 446 697.393 413.541 697.393 373.5C697.393 333.459 688.18 301 717.137 301C742.144 301 733.587 333.459 733.587 373.5Z" fill="#272429"/>
<path d="M805 300H696V307H805V300Z" fill="#B8B8B8"/>
<g filter="url(#filter8_d)">
<path d="M805.325 233.516H696.223V299.713H805.325V233.516Z" fill="#C4C4C4"/>
</g>
<path d="M710.898 108H736.006C736.27 108 736.59 108.122 736.98 108.62C737.383 109.138 737.768 109.961 738.092 111.08C738.737 113.308 739.039 116.361 738.996 119.481C738.951 122.599 738.561 125.664 737.89 127.909C737.553 129.039 737.167 129.878 736.778 130.408C736.387 130.941 736.122 131 736.006 131H735.975H735.944H735.912H735.881H735.849H735.817H735.786H735.752H735.72H735.688H735.654H735.622H735.588H735.555H735.522H735.487H735.453H735.419H735.385H735.35H735.316H735.281H735.245H735.21H735.174H735.14H735.104H735.068H735.032H734.995H734.959H734.921H734.885H734.848H734.811H734.774H734.737H734.698H734.661H734.622H734.584H734.546H734.507H734.469H734.43H734.392H734.352H734.312H734.273H734.233H734.194H734.154H734.114H734.073H734.034H733.993H733.952H733.911H733.87H733.829H733.788H733.746H733.705H733.663H733.621H733.578H733.536H733.494H733.452H733.41H733.366H733.323H733.281H733.237H733.194H733.151H733.107H733.063H733.019H732.976H732.931H732.887H732.842H732.797H732.753H732.708H732.663H732.619H732.573H732.527H732.482H732.436H732.391H732.345H732.299H732.253H732.206H732.16H732.114H732.067H732.02H731.974H731.927H731.88H731.833H731.784H731.737H731.69H731.642H731.595H731.546H731.498H731.449H731.402H731.354H731.304H731.256H731.208H731.159H731.11H731.061H731.012H730.962H730.914H730.864H730.815H730.765H730.714H730.665H730.615H730.565H730.514H730.465H730.414H730.363H730.314H730.263H730.212H730.161H730.11H730.059H730.007H729.956H729.906H729.854H729.803H729.751H729.699H729.648H729.596H729.544H729.491H729.439H729.387H729.335H729.283H729.23H729.178H729.126H729.072H729.02H728.967H728.915H728.862H728.808H728.755H728.702H728.648H728.595H728.542H728.488H728.435H728.382H728.327H728.274H728.221H728.166H728.113H728.058H728.005H727.95H727.896H727.841H727.788H727.733H727.679H727.624H727.57H727.515H727.46H727.405H727.35H727.295H727.241H727.185H727.131H727.076H727.02H726.966H726.91H726.854H726.8H726.744H726.689H726.633H726.578H726.522H726.466H726.41H726.356H726.3H726.244H726.188H726.132H726.075H726.02H725.964H725.908H725.852H725.796H725.739H725.684H725.628H725.571H725.515H725.459H725.402H725.346H725.289H725.233H725.176H725.121H725.064H725.008H724.951H724.894H724.838H724.781H724.724H724.668H724.611H724.554H724.498H724.441H724.384H724.327H724.27H724.214H724.157H724.1H724.043H723.986H723.929H723.872H723.816H723.759H723.702H723.645H723.588H723.531H723.474H723.417H723.36H723.303H723.246H723.189H723.133H723.076H723.019H722.962H722.905H722.848H722.791H722.734H722.677H722.62H722.563H722.505H722.448H722.391H722.334H722.279H722.222H722.164H722.107H722.05H721.993H721.936H721.881H721.824H721.766H721.709H721.652H721.597H721.54H721.482H721.426H721.37H721.313H721.256H721.2H721.143H721.086H721.03H720.973H720.917H720.86H720.804H720.747H720.691H720.634H720.579H720.522H720.466H720.41H720.353H720.297H720.241H720.184H720.128H720.073H720.017H719.961H719.905H719.85H719.794H719.738H719.682H719.626H719.57H719.515H719.459H719.404H719.348H719.293H719.237H719.182H719.127H719.072H719.016H718.962H718.906H718.851H718.797H718.741H718.686H718.632H718.577H718.523H718.468H718.414H718.359H718.304H718.25H718.195H718.141H718.087H718.033H717.978H717.925H717.87H717.817H717.763H717.709H717.656H717.601H717.548H717.495H717.441H717.388H717.335H717.281H717.228H717.176H717.123H717.069H717.017H716.964H716.912H716.859H716.807H716.754H716.701H716.649H716.597H716.545H716.493H716.441H716.39H716.338H716.286H716.235H716.183H716.132H716.08H716.029H715.978H715.927H715.877H715.826H715.775H715.724H715.673H715.622H715.573H715.522H715.472H715.422H715.372H715.322H715.273H715.223H715.173H715.124H715.074H715.026H714.976H714.927H714.878H714.83H714.78H714.732H714.684H714.635H714.587H714.539H714.49H714.443H714.395H714.348H714.299H714.252H714.205H714.158H714.111H714.064H714.017H713.971H713.924H713.878H713.831H713.785H713.739H713.693H713.647H713.601H713.555H713.509H713.465H713.419H713.374H713.328H713.284H713.239H713.195H713.151H713.106H713.062H713.018H712.974H712.93H712.887H712.844H712.8H712.757H712.713H712.671H712.628H712.586H712.542H712.5H712.458H712.416H712.375H712.333H712.291H712.25H712.209H712.167H712.126H712.085H712.045H712.004H711.963H711.924H711.884H711.843H711.803H711.764H711.725H711.685H711.646H711.607H711.569H711.529H711.491H711.454H711.415H711.377H711.34H711.301H711.264H711.227H711.19H711.152H711.115H711.079H711.042H711.006H710.97H710.934H710.898C710.619 131 710.298 130.873 709.917 130.383C709.519 129.869 709.142 129.05 708.83 127.931C708.207 125.706 707.939 122.654 708.011 119.53C708.083 116.412 708.491 113.34 709.156 111.087C709.491 109.952 709.866 109.105 710.243 108.569C710.63 108.018 710.861 108 710.898 108Z" stroke="#414141" stroke-width="2"/>
<path d="M736 29.2256C751.628 35.4591 753.915 29.9112 763 24C761.81 29.4036 755.912 35.5295 748.862 35.9048C741.81 36.28 738.107 35.8307 736 29.2256Z" fill="#444047"/>
<path d="M756.804 108H781.103C781.358 108 781.668 108.122 782.045 108.62C782.435 109.138 782.808 109.961 783.121 111.08C783.745 113.308 784.038 116.361 783.996 119.481C783.953 122.599 783.575 125.664 782.925 127.909C782.599 129.039 782.226 129.878 781.849 130.408C781.471 130.941 781.214 131 781.103 131H781.073H781.043H781.011H780.981H780.95H780.919H780.889H780.857H780.825H780.794H780.762H780.731H780.698H780.666H780.633H780.6H780.567H780.534H780.501H780.468H780.434H780.401H780.366H780.332H780.297H780.264H780.229H780.194H780.159H780.123H780.089H780.053H780.018H779.982H779.946H779.91H779.874H779.837H779.801H779.763H779.726H779.689H779.652H779.615H779.577H779.54H779.502H779.463H779.425H779.387H779.348H779.31H779.271H779.232H779.193H779.154H779.114H779.075H779.035H778.996H778.956H778.915H778.875H778.835H778.794H778.753H778.712H778.671H778.631H778.59H778.548H778.506H778.465H778.423H778.381H778.339H778.297H778.254H778.212H778.17H778.127H778.084H778.04H777.997H777.954H777.911H777.868H777.824H777.78H777.736H777.692H777.648H777.604H777.559H777.515H777.47H777.425H777.38H777.336H777.29H777.245H777.2H777.155H777.109H777.064H777.017H776.971H776.926H776.879H776.833H776.786H776.74H776.693H776.647H776.6H776.552H776.506H776.459H776.412H776.364H776.317H776.269H776.221H776.174H776.126H776.078H776.03H775.981H775.933H775.885H775.837H775.788H775.74H775.691H775.642H775.594H775.544H775.495H775.446H775.397H775.348H775.297H775.248H775.199H775.148H775.099H775.049H774.998H774.949H774.899H774.848H774.798H774.748H774.697H774.647H774.596H774.545H774.494H774.444H774.392H774.342H774.29H774.24H774.188H774.137H774.085H774.034H773.982H773.93H773.879H773.827H773.776H773.724H773.671H773.62H773.568H773.515H773.464H773.411H773.359H773.306H773.254H773.201H773.149H773.096H773.044H772.991H772.938H772.885H772.832H772.778H772.726H772.673H772.62H772.566H772.513H772.46H772.406H772.354H772.3H772.246H772.193H772.139H772.086H772.032H771.978H771.924H771.87H771.816H771.763H771.709H771.655H771.601H771.547H771.492H771.438H771.384H771.33H771.276H771.222H771.167H771.113H771.059H771.004H770.95H770.896H770.84H770.786H770.731H770.677H770.622H770.568H770.513H770.459H770.404H770.349H770.294H770.239H770.184H770.13H770.075H770.02H769.966H769.91H769.855H769.8H769.745H769.691H769.636H769.581H769.525H769.47H769.415H769.36H769.306H769.25H769.195H769.14H769.085H769.03H768.975H768.919H768.864H768.809H768.754H768.699H768.644H768.589H768.534H768.479H768.424H768.369H768.313H768.258H768.203H768.148H768.093H768.037H767.982H767.927H767.872H767.818H767.763H767.707H767.652H767.597H767.542H767.487H767.433H767.377H767.322H767.267H767.212H767.158H767.103H767.047H766.992H766.938H766.883H766.828H766.774H766.719H766.663H766.609H766.554H766.5H766.445H766.391H766.336H766.282H766.227H766.173H766.117H766.063H766.009H765.954H765.9H765.846H765.791H765.737H765.683H765.629H765.575H765.521H765.467H765.413H765.359H765.305H765.251H765.197H765.143H765.089H765.036H764.982H764.928H764.874H764.821H764.767H764.715H764.661H764.608H764.554H764.501H764.448H764.394H764.341H764.289H764.236H764.183H764.13H764.077H764.025H763.972H763.919H763.866H763.813H763.762H763.709H763.656H763.605H763.552H763.5H763.447H763.396H763.344H763.291H763.24H763.188H763.137H763.085H763.033H762.982H762.93H762.88H762.828H762.777H762.726H762.675H762.624H762.573H762.522H762.472H762.42H762.37H762.319H762.269H762.219H762.168H762.119H762.069H762.018H761.969H761.919H761.869H761.819H761.77H761.721H761.671H761.622H761.573H761.524H761.475H761.425H761.376H761.328H761.279H761.231H761.182H761.134H761.086H761.038H760.99H760.942H760.894H760.846H760.799H760.751H760.703H760.656H760.609H760.562H760.515H760.468H760.421H760.374H760.328H760.281H760.235H760.188H760.143H760.096H760.05H760.005H759.959H759.913H759.868H759.822H759.778H759.732H759.688H759.642H759.598H759.553H759.509H759.465H759.42H759.376H759.332H759.288H759.244H759.201H759.156H759.113H759.07H759.027H758.985H758.941H758.898H758.856H758.813H758.771H758.729H758.687H758.645H758.603H758.561H758.52H758.478H758.438H758.396H758.355H758.314H758.273H758.234H758.193H758.152H758.112H758.073H758.032H757.992H757.953H757.914H757.875H757.835H757.797H757.758H757.719H757.68H757.642H757.605H757.566H757.528H757.491H757.454H757.415H757.378H757.342H757.305H757.268H757.232H757.194H757.158H757.122H757.086H757.05H757.014H756.98H756.944H756.909H756.874H756.839H756.804C756.534 131 756.224 130.873 755.855 130.383C755.47 129.869 755.105 129.05 754.803 127.931C754.2 125.706 753.941 122.654 754.011 119.53C754.08 116.412 754.475 113.34 755.118 111.087C755.442 109.952 755.806 109.105 756.171 108.569C756.545 108.018 756.768 108 756.804 108Z" stroke="#414141" stroke-width="2"/>
<path d="M739 120C739 120 743.653 116 746.582 116C749.51 116 754 120 754 120" stroke="#414141" stroke-width="2"/>
<path d="M750.262 135.011C751.872 134.894 751.03 135.617 754.613 141.672C756.411 144.712 751.425 144.821 750.262 141.726C748.507 137.055 748.653 135.127 750.262 135.011Z" fill="#A48466"/>
<path d="M751.996 143.041C751.845 143.729 748.346 142.955 745.747 143.927C744.442 144.414 744.999 142.308 746.247 142.093C748.131 141.767 752.146 142.354 751.996 143.041Z" fill="#A48466"/>
<g filter="url(#filter9_d)">
<path d="M792.448 133.702C799.981 157.958 794.99 97.5697 792.448 90.4608C790.534 82.7461 784.678 68.572 780.019 63.1454C770.39 51.9301 759.484 46.2047 744.851 46.282C731.296 46.3534 716.874 52.5165 707.939 63.1454C703.336 68.6208 700.181 80.7915 697.712 87.9269C695.242 95.0623 694.155 122.944 703.049 129.647C709.078 113.941 717.72 101.34 722.168 85.4842C724.301 77.8796 784.915 109.447 792.448 133.702Z" fill="#272429"/>
</g>
<g filter="url(#filter10_d)">
<path d="M793.072 129.29C796.757 139.069 797.357 128.704 785.711 113.994C776.517 105.413 782.033 110.929 767.323 101.122C770.265 105.803 789.388 119.51 793.072 129.29Z" fill="#444047"/>
</g>
<path d="M762 123H776" stroke="#EFF4FF" stroke-opacity="0.57" stroke-width="0.5"/>
<path d="M762 128H776" stroke="#EFF4FF" stroke-opacity="0.57" stroke-width="0.5"/>
<path d="M762 125H772" stroke="#EFF4FF" stroke-opacity="0.57" stroke-width="0.5"/>
<path d="M718 123H732" stroke="#EFF4FF" stroke-opacity="0.57" stroke-width="0.5"/>
<path d="M718 128H732" stroke="#EFF4FF" stroke-opacity="0.57" stroke-width="0.5"/>
<path d="M718 125H728" stroke="#EFF4FF" stroke-opacity="0.57" stroke-width="0.5"/>
<path d="M750.693 160.589C752.981 159.512 757.696 154.419 757.696 154.419C754.365 156.344 749.467 154.459 748.241 156.298C747.016 154.459 740.27 155.519 738.434 154.419C742.575 159.168 745.247 163.152 750.693 160.589Z" fill="#A48466"/>
<defs>
<filter id="filter0_d" x="0" y="222" width="876.2" height="335" filterUnits="userSpaceOnUse" color-interpolation-filters="sRGB">
<feFlood flood-opacity="0" result="BackgroundImageFix"/>
<feColorMatrix in="SourceAlpha" type="matrix" values="0 0 0 0 0 0 0 0 0 0 0 0 0 0 0 0 0 0 127 0"/>
<feOffset dy="4"/>
<feGaussianBlur stdDeviation="2"/>
<feColorMatrix type="matrix" values="0 0 0 0 0 0 0 0 0 0 0 0 0 0 0 0 0 0 0.25 0"/>
<feBlend mode="normal" in2="BackgroundImageFix" result="effect1_dropShadow"/>
<feBlend mode="normal" in="SourceGraphic" in2="effect1_dropShadow" result="shape"/>
</filter>
<filter id="filter1_d" x="694.674" y="54.5392" width="103.618" height="128.76" filterUnits="userSpaceOnUse" color-interpolation-filters="sRGB">
<feFlood flood-opacity="0" result="BackgroundImageFix"/>
<feColorMatrix in="SourceAlpha" type="matrix" values="0 0 0 0 0 0 0 0 0 0 0 0 0 0 0 0 0 0 127 0"/>
<feOffset dy="4"/>
<feGaussianBlur stdDeviation="2"/>
<feColorMatrix type="matrix" values="0 0 0 0 0 0 0 0 0 0 0 0 0 0 0 0 0 0 0.25 0"/>
<feBlend mode="normal" in2="BackgroundImageFix" result="effect1_dropShadow"/>
<feBlend mode="normal" in="SourceGraphic" in2="effect1_dropShadow" result="shape"/>
</filter>
<filter id="filter2_d" x="686.626" y="274.594" width="41.2777" height="36.4914" filterUnits="userSpaceOnUse" color-interpolation-filters="sRGB">
<feFlood flood-opacity="0" result="BackgroundImageFix"/>
<feColorMatrix in="SourceAlpha" type="matrix" values="0 0 0 0 0 0 0 0 0 0 0 0 0 0 0 0 0 0 127 0"/>
<feOffset dy="4"/>
<feGaussianBlur stdDeviation="2"/>
<feColorMatrix type="matrix" values="0 0 0 0 0 0 0 0 0 0 0 0 0 0 0 0 0 0 0.25 0"/>
<feBlend mode="normal" in2="BackgroundImageFix" result="effect1_dropShadow"/>
<feBlend mode="normal" in="SourceGraphic" in2="effect1_dropShadow" result="shape"/>
</filter>
<filter id="filter3_d" x="763.096" y="274.358" width="41.2777" height="36.4914" filterUnits="userSpaceOnUse" color-interpolation-filters="sRGB">
<feFlood flood-opacity="0" result="BackgroundImageFix"/>
<feColorMatrix in="SourceAlpha" type="matrix" values="0 0 0 0 0 0 0 0 0 0 0 0 0 0 0 0 0 0 127 0"/>
<feOffset dy="4"/>
<feGaussianBlur stdDeviation="2"/>
<feColorMatrix type="matrix" values="0 0 0 0 0 0 0 0 0 0 0 0 0 0 0 0 0 0 0.25 0"/>
<feBlend mode="normal" in2="BackgroundImageFix" result="effect1_dropShadow"/>
<feBlend mode="normal" in="SourceGraphic" in2="effect1_dropShadow" result="shape"/>
</filter>
<filter id="filter4_d" x="747.157" y="452.611" width="36.8669" height="33.6402" filterUnits="userSpaceOnUse" color-interpolation-filters="sRGB">
<feFlood flood-opacity="0" result="BackgroundImageFix"/>
<feColorMatrix in="SourceAlpha" type="matrix" values="0 0 0 0 0 0 0 0 0 0 0 0 0 0 0 0 0 0 127 0"/>
<feOffset dy="4"/>
<feGaussianBlur stdDeviation="2"/>
<feColorMatrix type="matrix" values="0 0 0 0 0 0 0 0 0 0 0 0 0 0 0 0 0 0 0.25 0"/>
<feBlend mode="normal" in2="BackgroundImageFix" result="effect1_dropShadow"/>
<feBlend mode="normal" in="SourceGraphic" in2="effect1_dropShadow" result="shape"/>
</filter>
<filter id="filter5_d" x="701.137" y="452.611" width="36.8669" height="33.6402" filterUnits="userSpaceOnUse" color-interpolation-filters="sRGB">
<feFlood flood-opacity="0" result="BackgroundImageFix"/>
<feColorMatrix in="SourceAlpha" type="matrix" values="0 0 0 0 0 0 0 0 0 0 0 0 0 0 0 0 0 0 127 0"/>
<feOffset dy="4"/>
<feGaussianBlur stdDeviation="2"/>
<feColorMatrix type="matrix" values="0 0 0 0 0 0 0 0 0 0 0 0 0 0 0 0 0 0 0.25 0"/>
<feBlend mode="normal" in2="BackgroundImageFix" result="effect1_dropShadow"/>
<feBlend mode="normal" in="SourceGraphic" in2="effect1_dropShadow" result="shape"/>
</filter>
<filter id="filter6_d" x="717.839" y="0" width="62.1009" height="51.0469" filterUnits="userSpaceOnUse" color-interpolation-filters="sRGB">
<feFlood flood-opacity="0" result="BackgroundImageFix"/>
<feColorMatrix in="SourceAlpha" type="matrix" values="0 0 0 0 0 0 0 0 0 0 0 0 0 0 0 0 0 0 127 0"/>
<feOffset dy="4"/>
<feGaussianBlur stdDeviation="2"/>
<feColorMatrix type="matrix" values="0 0 0 0 0 0 0 0 0 0 0 0 0 0 0 0 0 0 0.25 0"/>
<feBlend mode="normal" in2="BackgroundImageFix" result="effect1_dropShadow"/>
<feBlend mode="normal" in="SourceGraphic" in2="effect1_dropShadow" result="shape"/>
</filter>
<filter id="filter7_d" x="682.574" y="304.419" width="115.718" height="74.8313" filterUnits="userSpaceOnUse" color-interpolation-filters="sRGB">
<feFlood flood-opacity="0" result="BackgroundImageFix"/>
<feColorMatrix in="SourceAlpha" type="matrix" values="0 0 0 0 0 0 0 0 0 0 0 0 0 0 0 0 0 0 127 0"/>
<feOffset dy="4"/>
<feGaussianBlur stdDeviation="2"/>
<feColorMatrix type="matrix" values="0 0 0 0 0 0 0 0 0 0 0 0 0 0 0 0 0 0 0.25 0"/>
<feBlend mode="normal" in2="BackgroundImageFix" result="effect1_dropShadow"/>
<feBlend mode="normal" in="SourceGraphic" in2="effect1_dropShadow" result="shape"/>
</filter>
<filter id="filter8_d" x="689.223" y="218.516" width="123.102" height="81.1969" filterUnits="userSpaceOnUse" color-interpolation-filters="sRGB">
<feFlood flood-opacity="0" result="BackgroundImageFix"/>
<feColorMatrix in="SourceAlpha" type="matrix" values="0 0 0 0 0 0 0 0 0 0 0 0 0 0 0 0 0 0 127 0"/>
<feOffset dy="-8"/>
<feGaussianBlur stdDeviation="3.5"/>
<feColorMatrix type="matrix" values="0 0 0 0 0.473229 0 0 0 0 0.668937 0 0 0 0 0.9625 0 0 0 0.35 0"/>
<feBlend mode="normal" in2="BackgroundImageFix" result="effect1_dropShadow"/>
<feBlend mode="normal" in="SourceGraphic" in2="effect1_dropShadow" result="shape"/>
</filter>
<filter id="filter9_d" x="691.962" y="46.2812" width="108.473" height="101.134" filterUnits="userSpaceOnUse" color-interpolation-filters="sRGB">
<feFlood flood-opacity="0" result="BackgroundImageFix"/>
<feColorMatrix in="SourceAlpha" type="matrix" values="0 0 0 0 0 0 0 0 0 0 0 0 0 0 0 0 0 0 127 0"/>
<feOffset dy="4"/>
<feGaussianBlur stdDeviation="2"/>
<feColorMatrix type="matrix" values="0 0 0 0 0 0 0 0 0 0 0 0 0 0 0 0 0 0 0.25 0"/>
<feBlend mode="normal" in2="BackgroundImageFix" result="effect1_dropShadow"/>
<feBlend mode="normal" in="SourceGraphic" in2="effect1_dropShadow" result="shape"/>
</filter>
<filter id="filter10_d" x="763.323" y="101.122" width="36.111" height="39.9945" filterUnits="userSpaceOnUse" color-interpolation-filters="sRGB">
<feFlood flood-opacity="0" result="BackgroundImageFix"/>
<feColorMatrix in="SourceAlpha" type="matrix" values="0 0 0 0 0 0 0 0 0 0 0 0 0 0 0 0 0 0 127 0"/>
<feOffset dy="4"/>
<feGaussianBlur stdDeviation="2"/>
<feColorMatrix type="matrix" values="0 0 0 0 0 0 0 0 0 0 0 0 0 0 0 0 0 0 0.25 0"/>
<feBlend mode="normal" in2="BackgroundImageFix" result="effect1_dropShadow"/>
<feBlend mode="normal" in="SourceGraphic" in2="effect1_dropShadow" result="shape"/>
</filter>
</defs>
</svg>
