<svg width="34" height="34" viewBox="0 0 34 34" fill="none" xmlns="http://www.w3.org/2000/svg">
<path d="M17 0C7.61317 0 0 7.61175 0 17C0 24.5112 4.8705 30.8833 11.6266 33.1316C12.4752 33.2888 12.75 32.7618 12.75 32.3142V29.1493C8.02117 30.1778 7.03658 27.1433 7.03658 27.1433C6.26308 25.1784 5.14817 24.6557 5.14817 24.6557C3.60542 23.6002 5.26575 23.6229 5.26575 23.6229C6.97283 23.7419 7.871 25.3753 7.871 25.3753C9.38683 27.9735 11.8476 27.2227 12.818 26.7877C12.9696 25.6898 13.4102 24.939 13.8975 24.5154C10.1221 24.0833 6.15258 22.6256 6.15258 16.1132C6.15258 14.2559 6.817 12.7401 7.90358 11.5501C7.72792 11.1208 7.14567 9.39108 8.06933 7.05075C8.06933 7.05075 9.49733 6.59458 12.7457 8.79325C14.1015 8.41642 15.555 8.228 17 8.22092C18.445 8.228 19.8999 8.41642 21.2585 8.79325C24.5041 6.59458 25.9292 7.05075 25.9292 7.05075C26.8543 9.3925 26.2721 11.1222 26.0964 11.5501C27.1872 12.7401 27.846 14.2573 27.846 16.1132C27.846 22.6426 23.8694 24.0805 20.0841 24.5012C20.6932 25.0282 21.25 26.0624 21.25 27.6491V32.3142C21.25 32.7661 21.522 33.2973 22.3847 33.1302C29.1352 30.8791 34 24.5083 34 17C34 7.61175 26.3882 0 17 0Z" fill="white"/>
</svg>
