<svg width="1387" height="29" viewBox="0 0 1387 29" fill="none" xmlns="http://www.w3.org/2000/svg">
<g clip-path="url(#clip0)">
<g filter="url(#filter0_d)">
<g opacity="0.6">
<path opacity="0.6" d="M836.2 10.3C836 12.6 838 14.5 840.8 14.4C843.6 14.4 846 12.5 846.2 10.2C846.4 7.89998 841.6 6.09998 841.6 6.09998C841.6 6.09998 836.4 7.99998 836.2 10.3Z" fill="black" fill-opacity="0.1"/>
</g>
<path d="M835.7 10.3C835.5 12.6 837.5 14.5 840.3 14.4C843.1 14.4 845.5 12.5 845.7 10.2C845.9 7.89998 841.1 6.09998 841.1 6.09998C841.1 6.09998 835.9 7.99998 835.7 10.3Z" fill="#FFBD56"/>
<path d="M841.5 6.59998C841.9 7.09998 841.9 7.79998 841.3 8.19998C840.5 8.79998 838.9 8.79998 838.8 8.59998C838.7 8.39998 839.9 7.59998 840.7 7.79998C841.7 7.99998 842 9.39998 841.1 9.79998C840.3 10.2 838.6 9.69998 838.7 9.39998C838.7 9.09998 839.8 8.79998 840.6 8.99998C841.5 9.29998 841.6 10.2 841.1 10.6C840.7 10.9 839.7 10.9 839.3 10.6C837.9 9.89998 840.1 6.89998 840.3 6.59998" stroke="#FFDEB3" stroke-width="0.25" stroke-miterlimit="10"/>
</g>
<g filter="url(#filter1_d)">
<g opacity="0.6">
<path opacity="0.6" d="M988.7 14.1C988.7 16.4 990.9 18.1 993.6 17.9C996.4 17.7 998.6 15.6 998.7 13.3C998.7 11 993.8 9.5 993.8 9.5C993.8 9.5 988.7 11.8 988.7 14.1Z" fill="black" fill-opacity="0.1"/>
</g>
<path d="M988.2 14.1C988.2 16.4 990.4 18.1 993.1 17.9C995.9 17.7 998.1 15.6 998.2 13.3C998.2 11 993.3 9.5 993.3 9.5C993.3 9.5 988.2 11.8 988.2 14.1Z" fill="#FFBD56"/>
<path d="M993.8 10.1C994.3 10.6 994.3 11.2 993.8 11.7C993.1 12.4 991.5 12.5 991.3 12.3C991.2 12.1 992.3 11.3 993.2 11.3C994.2 11.4 994.6 12.8 993.8 13.3C993.1 13.7 991.3 13.4 991.3 13.1C991.3 12.8 992.4 12.4 993.1 12.6C994 12.8 994.2 13.7 993.7 14.2C993.3 14.5 992.4 14.6 991.9 14.4C990.4 13.8 992.4 10.7 992.6 10.3" stroke="#FFDEB3" stroke-width="0.25" stroke-miterlimit="10"/>
</g>
<g filter="url(#filter2_d)">
<g opacity="0.6">
<path opacity="0.6" d="M1127.7 13.8C1127.9 16.1 1130.2 17.6 1133 17.1C1135.8 16.6 1137.8 14.3 1137.6 12C1137.4 9.69995 1132.3 8.69995 1132.3 8.69995C1132.3 8.69995 1127.5 11.5 1127.7 13.8Z" fill="black" fill-opacity="0.1"/>
</g>
<path d="M1127.2 13.8C1127.4 16.1 1129.7 17.6 1132.5 17.1C1135.3 16.6 1137.3 14.3 1137.1 12C1136.9 9.69995 1131.8 8.69995 1131.8 8.69995C1131.8 8.69995 1127 11.5 1127.2 13.8Z" fill="#FFBD56"/>
<path d="M1132.3 9.19995C1132.8 9.69995 1132.9 10.3 1132.4 10.8C1131.7 11.6 1130.1 11.8 1130 11.6C1129.8 11.4 1130.9 10.5 1131.8 10.5C1132.8 10.5 1133.3 11.8 1132.6 12.4C1131.9 12.9 1130.2 12.7 1130.1 12.4C1130.1 12.1 1131.1 11.6 1131.9 11.7C1132.8 11.8 1133.2 12.7 1132.6 13.2C1132.2 13.5 1131.3 13.7 1130.8 13.5C1129.3 13 1130.9 9.69995 1131.1 9.39995" stroke="#FFDEB3" stroke-width="0.25" stroke-miterlimit="10"/>
</g>
<g filter="url(#filter3_d)">
<g opacity="0.6">
<path opacity="0.6" d="M1285.3 15.6C1284.6 17.8 1286.2 20 1288.9 20.7C1291.6 21.3 1294.4 20 1295.1 17.8C1295.8 15.6 1291.5 12.7 1291.5 12.7C1291.5 12.7 1286.1 13.4 1285.3 15.6Z" fill="black" fill-opacity="0.1"/>
</g>
<path d="M1284.8 15.6C1284.1 17.8 1285.7 20 1288.4 20.7C1291.1 21.3 1293.9 20 1294.6 17.8C1295.3 15.6 1291 12.7 1291 12.7C1291 12.7 1285.6 13.4 1284.8 15.6Z" fill="#FFBD56"/>
<path d="M1291.3 13.4C1291.6 14 1291.4 14.6 1290.8 14.9C1289.9 15.3 1288.3 15 1288.3 14.7C1288.2 14.5 1289.6 14 1290.4 14.3C1291.3 14.7 1291.3 16.1 1290.4 16.3C1289.6 16.5 1288 15.7 1288.1 15.4C1288.2 15.2 1289.3 15 1290 15.4C1290.8 15.9 1290.8 16.8 1290.1 17.1C1289.6 17.3 1288.7 17.1 1288.3 16.7C1287.1 15.7 1289.9 13.3 1290.2 13" stroke="#FFDEB3" stroke-width="0.25" stroke-miterlimit="10"/>
</g>
<g filter="url(#filter4_d)">
<g opacity="0.6">
<path opacity="0.6" d="M368 17.4C367.9 19.7 370.1 21.4 372.9 21.2C375.7 21 378 18.9 378 16.7C378.1 14.4 373.1 12.9 373.1 12.9C373.1 12.9 368 15.1 368 17.4Z" fill="black" fill-opacity="0.1"/>
</g>
<path d="M367.5 17.4C367.4 19.7 369.6 21.4 372.4 21.2C375.2 21 377.5 18.9 377.5 16.7C377.6 14.4 372.6 12.9 372.6 12.9C372.6 12.9 367.5 15.1 367.5 17.4Z" fill="#FFBD56"/>
<path d="M373.1 13.4C373.6 13.9 373.6 14.6 373.1 15C372.3 15.7 370.8 15.8 370.6 15.6C370.5 15.4 371.7 14.6 372.5 14.7C373.5 14.8 373.9 16.2 373.1 16.7C372.4 17.1 370.6 16.8 370.6 16.5C370.6 16.2 371.7 15.8 372.5 16C373.4 16.2 373.6 17.2 373.1 17.6C372.7 17.9 371.7 17.9 371.2 17.7C369.7 17.1 371.7 14 371.9 13.6" stroke="#FFDEB3" stroke-width="0.25" stroke-miterlimit="10"/>
</g>
<g filter="url(#filter5_d)">
<g opacity="0.6">
<path opacity="0.6" d="M519.2 13.9C519.2 16.2 521.5 17.8 524.2 17.5C526.9 17.2 529.2 15.1 529.2 12.8C529.2 10.5 524.2 9.19995 524.2 9.19995C524.2 9.19995 519.2 11.6 519.2 13.9Z" fill="black" fill-opacity="0.1"/>
</g>
<path d="M518.7 13.9C518.7 16.2 521 17.8 523.7 17.5C526.4 17.2 528.7 15.1 528.7 12.8C528.7 10.5 523.7 9.19995 523.7 9.19995C523.7 9.19995 518.7 11.6 518.7 13.9Z" fill="#FFBD56"/>
<path d="M524.2 9.69995C524.7 10.2 524.7 10.8 524.2 11.3C523.5 12 521.9 12.2 521.7 12C521.6 11.8 522.7 10.9 523.5 11C524.5 11.1 524.9 12.4 524.1 12.9C523.4 13.4 521.6 13.1 521.6 12.8C521.6 12.5 522.6 12.1 523.4 12.2C524.3 12.4 524.6 13.3 524 13.7C523.6 14 522.7 14.1 522.2 13.9C520.7 13.3 522.6 10.1 522.8 9.79995" stroke="#FFDEB3" stroke-width="0.25" stroke-miterlimit="10"/>
</g>
<g filter="url(#filter6_d)">
<g opacity="0.6">
<path opacity="0.6" d="M680.7 13.4C680.5 15.7 682.5 17.6 685.3 17.5C688.1 17.5 690.5 15.6 690.7 13.3C690.9 11 686.1 9.19995 686.1 9.19995C686.1 9.19995 680.9 11.1 680.7 13.4Z" fill="black" fill-opacity="0.1"/>
</g>
<path d="M680.2 13.4C680 15.7 682 17.6 684.8 17.5C687.6 17.5 690 15.6 690.2 13.3C690.4 11 685.6 9.19995 685.6 9.19995C685.6 9.19995 680.4 11.1 680.2 13.4Z" fill="#FFBD56"/>
<path d="M686 9.79993C686.4 10.2999 686.4 10.9999 685.8 11.3999C685 11.9999 683.4 11.9999 683.3 11.7999C683.2 11.5999 684.4 10.7999 685.2 10.9999C686.2 11.1999 686.5 12.5999 685.6 12.9999C684.8 13.3999 683.1 12.8999 683.2 12.5999C683.2 12.2999 684.3 11.9999 685.1 12.1999C686 12.4999 686.1 13.3999 685.6 13.7999C685.2 14.0999 684.2 14.0999 683.8 13.7999C682.4 13.0999 684.6 10.0999 684.8 9.79993" stroke="#FFDEB3" stroke-width="0.25" stroke-miterlimit="10"/>
</g>
<g filter="url(#filter7_d)">
<g opacity="0.6">
<path opacity="0.6" d="M220.8 20.4001C221.3 22.7001 223.9 23.7001 226.5 22.8001C229.1 21.9001 230.8 19.3001 230.3 17.1001C229.8 14.8001 224.6 14.7001 224.6 14.7001C224.6 14.7001 220.3 18.2001 220.8 20.4001Z" fill="black" fill-opacity="0.1"/>
</g>
<path d="M220.3 19.1C220.8 21.4 223.4 22.4 226 21.5C228.6 20.6 230.3 18 229.8 15.8C229.3 13.5 224.1 13.4 224.1 13.4C224.1 13.4 219.8 16.9 220.3 19.1Z" fill="#FFBD56"/>
<path d="M224.7 15.1C225.3 15.5 225.4 16.1 225.1 16.7C224.5 17.5 223 18 222.9 17.9C222.7 17.7 223.7 16.6 224.5 16.5C225.5 16.3 226.2 17.6 225.5 18.3C224.9 18.9 223.1 19 223.1 18.7C223 18.5 224 17.8 224.8 17.7C225.7 17.6 226.2 18.5 225.7 19.1C225.4 19.5 224.5 19.8 223.9 19.7C222.3 19.4 223.5 15.9 223.6 15.6" stroke="#FFDEB3" stroke-width="0.25" stroke-miterlimit="10"/>
</g>
<g filter="url(#filter8_d)">
<g opacity="0.6">
<path opacity="0.6" d="M83.8 11.1C83.7 13.4 85.9 15.1 88.7 14.9C91.5 14.7 93.8 12.6 93.8 10.4C93.9 8.09998 88.9 6.59998 88.9 6.59998C88.9 6.59998 83.8 8.79998 83.8 11.1Z" fill="black" fill-opacity="0.1"/>
</g>
<path d="M83.3 11.1C83.2 13.4 85.4 15.1 88.2 14.9C91 14.7 93.3 12.6 93.3 10.4C93.4 8.09998 88.4 6.59998 88.4 6.59998C88.4 6.59998 83.3 8.79998 83.3 11.1Z" fill="#FFBD56"/>
<path d="M88.9 7.09998C89.4 7.59998 89.4 8.29998 88.9 8.69998C88.1 9.39998 86.6 9.49998 86.4 9.29998C86.3 9.09998 87.5 8.29998 88.3 8.39998C89.3 8.49998 89.7 9.89998 88.9 10.4C88.2 10.8 86.5 10.5 86.5 10.2C86.5 9.89998 87.6 9.49998 88.4 9.69998C89.3 9.89998 89.5 10.9 89 11.3C88.6 11.6 87.7 11.6 87.2 11.4C85.7 10.8 87.7 7.69998 87.9 7.29998" stroke="#FFDEB3" stroke-width="0.25" stroke-miterlimit="10"/>
</g>
<path d="M1437.6 -7C1422 3 1393.1 -0.8 1361.1 7C1337.6 12.7 1319.3 13.4 1295.4 12.4C1261.7 10.9 1239.3 3.6 1196.3 6.1C1186 6.7 1188.8 7 1178 7.6C1132.9 10.3 1119.8 3.3 1074 4C1055.4 4.3 1036.7 5.8 1034.4 6C1010.4 7.9 999.7 10.1 964 11C897.2 12.7 893.3 5.7 813 5C755.9 4.5 756.3 8 682 8C617.1 8 620.5 5.3 573 6C498.3 7.1 492 13.7 423 14C366.6 14.2 375.4 9.8 314 10C243.7 10.3 229.9 16.1 175 12C136.7 9.1 131.1 5.3 100 5C58.0001 4.6 34.3001 7.1 0.600098 3.5" stroke="black" stroke-miterlimit="10"/>
</g>
<defs>
<filter id="filter0_d" x="832.686" y="3.09998" width="16.5199" height="14.3038" filterUnits="userSpaceOnUse" color-interpolation-filters="sRGB">
<feFlood flood-opacity="0" result="BackgroundImageFix"/>
<feColorMatrix in="SourceAlpha" type="matrix" values="0 0 0 0 0 0 0 0 0 0 0 0 0 0 0 0 0 0 127 0"/>
<feOffset/>
<feGaussianBlur stdDeviation="1.5"/>
<feColorMatrix type="matrix" values="0 0 0 0 1 0 0 0 0 0.776161 0 0 0 0 0.479232 0 0 0 1 0"/>
<feBlend mode="normal" in2="BackgroundImageFix" result="effect1_dropShadow"/>
<feBlend mode="normal" in="SourceGraphic" in2="effect1_dropShadow" result="shape"/>
</filter>
<filter id="filter1_d" x="985.2" y="6.5" width="16.5" height="14.416" filterUnits="userSpaceOnUse" color-interpolation-filters="sRGB">
<feFlood flood-opacity="0" result="BackgroundImageFix"/>
<feColorMatrix in="SourceAlpha" type="matrix" values="0 0 0 0 0 0 0 0 0 0 0 0 0 0 0 0 0 0 127 0"/>
<feOffset/>
<feGaussianBlur stdDeviation="1.5"/>
<feColorMatrix type="matrix" values="0 0 0 0 1 0 0 0 0 0.776161 0 0 0 0 0.479232 0 0 0 1 0"/>
<feBlend mode="normal" in2="BackgroundImageFix" result="effect1_dropShadow"/>
<feBlend mode="normal" in="SourceGraphic" in2="effect1_dropShadow" result="shape"/>
</filter>
<filter id="filter2_d" x="1124.19" y="5.69995" width="16.4199" height="14.4962" filterUnits="userSpaceOnUse" color-interpolation-filters="sRGB">
<feFlood flood-opacity="0" result="BackgroundImageFix"/>
<feColorMatrix in="SourceAlpha" type="matrix" values="0 0 0 0 0 0 0 0 0 0 0 0 0 0 0 0 0 0 127 0"/>
<feOffset/>
<feGaussianBlur stdDeviation="1.5"/>
<feColorMatrix type="matrix" values="0 0 0 0 1 0 0 0 0 0.776161 0 0 0 0 0.479232 0 0 0 1 0"/>
<feBlend mode="normal" in2="BackgroundImageFix" result="effect1_dropShadow"/>
<feBlend mode="normal" in="SourceGraphic" in2="effect1_dropShadow" result="shape"/>
</filter>
<filter id="filter3_d" x="1281.64" y="9.69995" width="16.5413" height="14.1463" filterUnits="userSpaceOnUse" color-interpolation-filters="sRGB">
<feFlood flood-opacity="0" result="BackgroundImageFix"/>
<feColorMatrix in="SourceAlpha" type="matrix" values="0 0 0 0 0 0 0 0 0 0 0 0 0 0 0 0 0 0 127 0"/>
<feOffset/>
<feGaussianBlur stdDeviation="1.5"/>
<feColorMatrix type="matrix" values="0 0 0 0 1 0 0 0 0 0.776161 0 0 0 0 0.479232 0 0 0 1 0"/>
<feBlend mode="normal" in2="BackgroundImageFix" result="effect1_dropShadow"/>
<feBlend mode="normal" in="SourceGraphic" in2="effect1_dropShadow" result="shape"/>
</filter>
<filter id="filter4_d" x="364.497" y="9.90002" width="16.5048" height="14.316" filterUnits="userSpaceOnUse" color-interpolation-filters="sRGB">
<feFlood flood-opacity="0" result="BackgroundImageFix"/>
<feColorMatrix in="SourceAlpha" type="matrix" values="0 0 0 0 0 0 0 0 0 0 0 0 0 0 0 0 0 0 127 0"/>
<feOffset/>
<feGaussianBlur stdDeviation="1.5"/>
<feColorMatrix type="matrix" values="0 0 0 0 1 0 0 0 0 0.776161 0 0 0 0 0.479232 0 0 0 1 0"/>
<feBlend mode="normal" in2="BackgroundImageFix" result="effect1_dropShadow"/>
<feBlend mode="normal" in="SourceGraphic" in2="effect1_dropShadow" result="shape"/>
</filter>
<filter id="filter5_d" x="515.7" y="6.19995" width="16.5" height="14.3361" filterUnits="userSpaceOnUse" color-interpolation-filters="sRGB">
<feFlood flood-opacity="0" result="BackgroundImageFix"/>
<feColorMatrix in="SourceAlpha" type="matrix" values="0 0 0 0 0 0 0 0 0 0 0 0 0 0 0 0 0 0 127 0"/>
<feOffset/>
<feGaussianBlur stdDeviation="1.5"/>
<feColorMatrix type="matrix" values="0 0 0 0 1 0 0 0 0 0.776161 0 0 0 0 0.479232 0 0 0 1 0"/>
<feBlend mode="normal" in2="BackgroundImageFix" result="effect1_dropShadow"/>
<feBlend mode="normal" in="SourceGraphic" in2="effect1_dropShadow" result="shape"/>
</filter>
<filter id="filter6_d" x="677.186" y="6.19995" width="16.5199" height="14.3038" filterUnits="userSpaceOnUse" color-interpolation-filters="sRGB">
<feFlood flood-opacity="0" result="BackgroundImageFix"/>
<feColorMatrix in="SourceAlpha" type="matrix" values="0 0 0 0 0 0 0 0 0 0 0 0 0 0 0 0 0 0 127 0"/>
<feOffset/>
<feGaussianBlur stdDeviation="1.5"/>
<feColorMatrix type="matrix" values="0 0 0 0 1 0 0 0 0 0.776161 0 0 0 0 0.479232 0 0 0 1 0"/>
<feBlend mode="normal" in2="BackgroundImageFix" result="effect1_dropShadow"/>
<feBlend mode="normal" in="SourceGraphic" in2="effect1_dropShadow" result="shape"/>
</filter>
<filter id="filter7_d" x="217.26" y="10.4" width="16.1277" height="15.7282" filterUnits="userSpaceOnUse" color-interpolation-filters="sRGB">
<feFlood flood-opacity="0" result="BackgroundImageFix"/>
<feColorMatrix in="SourceAlpha" type="matrix" values="0 0 0 0 0 0 0 0 0 0 0 0 0 0 0 0 0 0 127 0"/>
<feOffset/>
<feGaussianBlur stdDeviation="1.5"/>
<feColorMatrix type="matrix" values="0 0 0 0 1 0 0 0 0 0.776161 0 0 0 0 0.479232 0 0 0 1 0"/>
<feBlend mode="normal" in2="BackgroundImageFix" result="effect1_dropShadow"/>
<feBlend mode="normal" in="SourceGraphic" in2="effect1_dropShadow" result="shape"/>
</filter>
<filter id="filter8_d" x="80.2968" y="3.59998" width="16.5048" height="14.316" filterUnits="userSpaceOnUse" color-interpolation-filters="sRGB">
<feFlood flood-opacity="0" result="BackgroundImageFix"/>
<feColorMatrix in="SourceAlpha" type="matrix" values="0 0 0 0 0 0 0 0 0 0 0 0 0 0 0 0 0 0 127 0"/>
<feOffset/>
<feGaussianBlur stdDeviation="1.5"/>
<feColorMatrix type="matrix" values="0 0 0 0 1 0 0 0 0 0.776161 0 0 0 0 0.479232 0 0 0 1 0"/>
<feBlend mode="normal" in2="BackgroundImageFix" result="effect1_dropShadow"/>
<feBlend mode="normal" in="SourceGraphic" in2="effect1_dropShadow" result="shape"/>
</filter>
<clipPath id="clip0">
<rect width="1386.1" height="28.6" fill="white"/>
</clipPath>
</defs>
</svg>

