<svg width="29" height="20" viewBox="0 0 29 20" fill="none" xmlns="http://www.w3.org/2000/svg">
<g filter="url(#filter0_d)">
<path d="M3.67958 15C7.25235 15 22.0012 15 25.4928 15C28.9844 15 28.6836 19 25.4928 19C22.302 19 7.25236 19 3.67958 19C0.1068 19 0.10681 15 3.67958 15Z" fill="#FFFADE"/>
</g>
<g filter="url(#filter1_d)">
<path d="M4.58034 1C8.02078 1 22.2234 1 25.5857 1C28.948 1 28.6583 5 25.5857 5C22.513 5 8.02079 5 4.58034 5C1.13988 5 1.13989 1 4.58034 1Z" fill="#FFFADE"/>
</g>
<g filter="url(#filter2_d)">
<path d="M4.58034 8C8.02078 8 22.2234 8 25.5857 8C28.948 8 28.6583 12 25.5857 12C22.513 12 8.02079 12 4.58034 12C1.13988 12 1.13989 8 4.58034 8Z" fill="#FFFADE"/>
</g>
<defs>
<filter id="filter0_d" x="0" y="14" width="29" height="6" filterUnits="userSpaceOnUse" color-interpolation-filters="sRGB">
<feFlood flood-opacity="0" result="BackgroundImageFix"/>
<feColorMatrix in="SourceAlpha" type="matrix" values="0 0 0 0 0 0 0 0 0 0 0 0 0 0 0 0 0 0 127 0"/>
<feOffset/>
<feGaussianBlur stdDeviation="0.5"/>
<feColorMatrix type="matrix" values="0 0 0 0 1 0 0 0 0 0.980392 0 0 0 0 0.870588 0 0 0 1 0"/>
<feBlend mode="normal" in2="BackgroundImageFix" result="effect1_dropShadow"/>
<feBlend mode="normal" in="SourceGraphic" in2="effect1_dropShadow" result="shape"/>
</filter>
<filter id="filter1_d" x="1" y="0" width="28" height="6" filterUnits="userSpaceOnUse" color-interpolation-filters="sRGB">
<feFlood flood-opacity="0" result="BackgroundImageFix"/>
<feColorMatrix in="SourceAlpha" type="matrix" values="0 0 0 0 0 0 0 0 0 0 0 0 0 0 0 0 0 0 127 0"/>
<feOffset/>
<feGaussianBlur stdDeviation="0.5"/>
<feColorMatrix type="matrix" values="0 0 0 0 1 0 0 0 0 0.980392 0 0 0 0 0.870588 0 0 0 1 0"/>
<feBlend mode="normal" in2="BackgroundImageFix" result="effect1_dropShadow"/>
<feBlend mode="normal" in="SourceGraphic" in2="effect1_dropShadow" result="shape"/>
</filter>
<filter id="filter2_d" x="1" y="7" width="28" height="6" filterUnits="userSpaceOnUse" color-interpolation-filters="sRGB">
<feFlood flood-opacity="0" result="BackgroundImageFix"/>
<feColorMatrix in="SourceAlpha" type="matrix" values="0 0 0 0 0 0 0 0 0 0 0 0 0 0 0 0 0 0 127 0"/>
<feOffset/>
<feGaussianBlur stdDeviation="0.5"/>
<feColorMatrix type="matrix" values="0 0 0 0 1 0 0 0 0 0.980392 0 0 0 0 0.870588 0 0 0 1 0"/>
<feBlend mode="normal" in2="BackgroundImageFix" result="effect1_dropShadow"/>
<feBlend mode="normal" in="SourceGraphic" in2="effect1_dropShadow" result="shape"/>
</filter>
</defs>
</svg>
